<?xml version="1.0" encoding="utf-8"?>
<!-- Generator: Adobe Illustrator 16.0.0, SVG Export Plug-In . SVG Version: 6.00 Build 0)  -->
<!DOCTYPE svg PUBLIC "-//W3C//DTD SVG 1.1//EN" "http://www.w3.org/Graphics/SVG/1.1/DTD/svg11.dtd">
<svg version="1.1" id="图层_1" xmlns="http://www.w3.org/2000/svg" xmlns:xlink="http://www.w3.org/1999/xlink" x="0px" y="0px"
	 width="646px" height="140px" viewBox="0 0 646 140" enable-background="new 0 0 646 140" xml:space="preserve">
<g>
	<g>
		<g id="Triangle-2-Copy-3_5_">
			<g>
				<defs>
					<path id="SVGID_1_" d="M74.291,95.895l78.038,25.356l-13.626-90.828L74.291,95.895z M148.414,16.169l16.711,111.387
						c0.887,5.908-3.001,9.2-8.683,7.354l-93.509-30.384c-5.683-1.846-6.891-6.795-2.701-11.053l78.991-80.291
						C143.413,8.924,147.528,10.261,148.414,16.169z"/>
				</defs>
				<clipPath id="SVGID_2_">
					<use xlink:href="#SVGID_1_"  overflow="visible"/>
				</clipPath>
				<rect x="56.042" y="8.924" clip-path="url(#SVGID_2_)" fill="#D64041" width="109.97" height="1.84"/>
				<rect x="56.042" y="10.767" clip-path="url(#SVGID_2_)" fill="#D64041" width="109.97" height="1.325"/>
				<rect x="56.042" y="12.092" clip-path="url(#SVGID_2_)" fill="#D64142" width="109.97" height="1.326"/>
				<rect x="56.042" y="13.418" clip-path="url(#SVGID_2_)" fill="#D74242" width="109.97" height="1.325"/>
				<rect x="56.042" y="14.743" clip-path="url(#SVGID_2_)" fill="#D74343" width="109.97" height="1.326"/>
				<rect x="56.042" y="16.069" clip-path="url(#SVGID_2_)" fill="#D74444" width="109.97" height="1.325"/>
				<rect x="56.042" y="17.395" clip-path="url(#SVGID_2_)" fill="#D84544" width="109.97" height="1.326"/>
				<rect x="56.042" y="18.721" clip-path="url(#SVGID_2_)" fill="#D84645" width="109.97" height="1.325"/>
				<rect x="56.042" y="20.046" clip-path="url(#SVGID_2_)" fill="#D84745" width="109.97" height="1.326"/>
				<rect x="56.042" y="21.372" clip-path="url(#SVGID_2_)" fill="#D94846" width="109.97" height="1.325"/>
				<rect x="56.042" y="22.697" clip-path="url(#SVGID_2_)" fill="#D94947" width="109.97" height="1.326"/>
				<rect x="56.042" y="24.023" clip-path="url(#SVGID_2_)" fill="#D94A47" width="109.97" height="1.325"/>
				<rect x="56.042" y="25.349" clip-path="url(#SVGID_2_)" fill="#DA4B48" width="109.97" height="1.325"/>
				<rect x="56.042" y="26.674" clip-path="url(#SVGID_2_)" fill="#DA4C49" width="109.97" height="1.326"/>
				<rect x="56.042" y="28" clip-path="url(#SVGID_2_)" fill="#DA4D49" width="109.97" height="1.325"/>
				<rect x="56.042" y="29.325" clip-path="url(#SVGID_2_)" fill="#DB4E4A" width="109.97" height="1.326"/>
				<rect x="56.042" y="30.651" clip-path="url(#SVGID_2_)" fill="#DB4F4B" width="109.97" height="1.325"/>
				<rect x="56.042" y="31.977" clip-path="url(#SVGID_2_)" fill="#DB504B" width="109.97" height="1.326"/>
				<rect x="56.042" y="33.303" clip-path="url(#SVGID_2_)" fill="#DC514C" width="109.97" height="1.325"/>
				<rect x="56.042" y="34.628" clip-path="url(#SVGID_2_)" fill="#DC524C" width="109.97" height="1.326"/>
				<rect x="56.042" y="35.954" clip-path="url(#SVGID_2_)" fill="#DC534D" width="109.97" height="1.325"/>
				<rect x="56.042" y="37.279" clip-path="url(#SVGID_2_)" fill="#DD544E" width="109.97" height="1.326"/>
				<rect x="56.042" y="38.605" clip-path="url(#SVGID_2_)" fill="#DD554E" width="109.97" height="1.325"/>
				<rect x="56.042" y="39.931" clip-path="url(#SVGID_2_)" fill="#DD564F" width="109.97" height="1.325"/>
				<rect x="56.042" y="41.256" clip-path="url(#SVGID_2_)" fill="#DE5750" width="109.97" height="1.326"/>
				<rect x="56.042" y="42.582" clip-path="url(#SVGID_2_)" fill="#DE5850" width="109.97" height="1.325"/>
				<rect x="56.042" y="43.907" clip-path="url(#SVGID_2_)" fill="#DE5951" width="109.97" height="1.326"/>
				<rect x="56.042" y="45.233" clip-path="url(#SVGID_2_)" fill="#DF5A51" width="109.97" height="1.325"/>
				<rect x="56.042" y="46.559" clip-path="url(#SVGID_2_)" fill="#DF5B52" width="109.97" height="1.326"/>
				<rect x="56.042" y="47.885" clip-path="url(#SVGID_2_)" fill="#DF5C53" width="109.97" height="1.325"/>
				<rect x="56.042" y="49.21" clip-path="url(#SVGID_2_)" fill="#E05D53" width="109.97" height="1.326"/>
				<rect x="56.042" y="50.536" clip-path="url(#SVGID_2_)" fill="#E05E54" width="109.97" height="1.325"/>
				<rect x="56.042" y="51.862" clip-path="url(#SVGID_2_)" fill="#E05F55" width="109.97" height="1.325"/>
				<rect x="56.042" y="53.187" clip-path="url(#SVGID_2_)" fill="#E16055" width="109.97" height="1.326"/>
				<rect x="56.042" y="54.513" clip-path="url(#SVGID_2_)" fill="#E16156" width="109.97" height="1.325"/>
				<rect x="56.042" y="55.838" clip-path="url(#SVGID_2_)" fill="#E16257" width="109.97" height="1.326"/>
				<rect x="56.042" y="57.164" clip-path="url(#SVGID_2_)" fill="#E26357" width="109.97" height="1.325"/>
				<rect x="56.042" y="58.489" clip-path="url(#SVGID_2_)" fill="#E26458" width="109.97" height="1.326"/>
				<rect x="56.042" y="59.815" clip-path="url(#SVGID_2_)" fill="#E26558" width="109.97" height="1.325"/>
				<rect x="56.042" y="61.141" clip-path="url(#SVGID_2_)" fill="#E36659" width="109.97" height="1.326"/>
				<rect x="56.042" y="62.467" clip-path="url(#SVGID_2_)" fill="#E3675A" width="109.97" height="1.325"/>
				<rect x="56.042" y="63.792" clip-path="url(#SVGID_2_)" fill="#E3685A" width="109.97" height="1.326"/>
				<rect x="56.042" y="65.118" clip-path="url(#SVGID_2_)" fill="#E4695B" width="109.97" height="1.325"/>
				<rect x="56.042" y="66.443" clip-path="url(#SVGID_2_)" fill="#E46A5C" width="109.97" height="1.325"/>
				<rect x="56.042" y="67.769" clip-path="url(#SVGID_2_)" fill="#E46B5C" width="109.97" height="1.326"/>
				<rect x="56.042" y="69.095" clip-path="url(#SVGID_2_)" fill="#E56C5D" width="109.97" height="1.325"/>
				<rect x="56.042" y="70.42" clip-path="url(#SVGID_2_)" fill="#E56D5E" width="109.97" height="1.326"/>
				<rect x="56.042" y="71.746" clip-path="url(#SVGID_2_)" fill="#E56E5E" width="109.97" height="1.325"/>
				<rect x="56.042" y="73.071" clip-path="url(#SVGID_2_)" fill="#E6705F" width="109.97" height="1.326"/>
				<rect x="56.042" y="74.397" clip-path="url(#SVGID_2_)" fill="#E6715F" width="109.97" height="1.325"/>
				<rect x="56.042" y="75.723" clip-path="url(#SVGID_2_)" fill="#E67260" width="109.97" height="1.326"/>
				<rect x="56.042" y="77.049" clip-path="url(#SVGID_2_)" fill="#E77361" width="109.97" height="1.325"/>
				<rect x="56.042" y="78.374" clip-path="url(#SVGID_2_)" fill="#E77461" width="109.97" height="1.326"/>
				<rect x="56.042" y="79.7" clip-path="url(#SVGID_2_)" fill="#E77562" width="109.97" height="1.325"/>
				<rect x="56.042" y="81.025" clip-path="url(#SVGID_2_)" fill="#E87663" width="109.97" height="1.325"/>
				<rect x="56.042" y="82.351" clip-path="url(#SVGID_2_)" fill="#E87763" width="109.97" height="1.326"/>
				<rect x="56.042" y="83.677" clip-path="url(#SVGID_2_)" fill="#E87864" width="109.97" height="1.325"/>
				<rect x="56.042" y="85.002" clip-path="url(#SVGID_2_)" fill="#E97965" width="109.97" height="1.326"/>
				<rect x="56.042" y="86.328" clip-path="url(#SVGID_2_)" fill="#E97A65" width="109.97" height="1.325"/>
				<rect x="56.042" y="87.653" clip-path="url(#SVGID_2_)" fill="#E97B66" width="109.97" height="1.326"/>
				<rect x="56.042" y="88.979" clip-path="url(#SVGID_2_)" fill="#EA7C66" width="109.97" height="1.325"/>
				<rect x="56.042" y="90.305" clip-path="url(#SVGID_2_)" fill="#EA7D67" width="109.97" height="1.326"/>
				<rect x="56.042" y="91.631" clip-path="url(#SVGID_2_)" fill="#EA7E68" width="109.97" height="1.325"/>
				<rect x="56.042" y="92.956" clip-path="url(#SVGID_2_)" fill="#EB7F68" width="109.97" height="1.325"/>
				<rect x="56.042" y="94.281" clip-path="url(#SVGID_2_)" fill="#EB8069" width="109.97" height="1.326"/>
				<rect x="56.042" y="95.607" clip-path="url(#SVGID_2_)" fill="#EB816A" width="109.97" height="1.325"/>
				<rect x="56.042" y="96.933" clip-path="url(#SVGID_2_)" fill="#EC826A" width="109.97" height="1.326"/>
				<rect x="56.042" y="98.259" clip-path="url(#SVGID_2_)" fill="#EC836B" width="109.97" height="1.325"/>
				<rect x="56.042" y="99.584" clip-path="url(#SVGID_2_)" fill="#EC846C" width="109.97" height="1.326"/>
				<rect x="56.042" y="100.91" clip-path="url(#SVGID_2_)" fill="#ED856C" width="109.97" height="1.325"/>
				<rect x="56.042" y="102.235" clip-path="url(#SVGID_2_)" fill="#ED866D" width="109.97" height="1.326"/>
				<rect x="56.042" y="103.562" clip-path="url(#SVGID_2_)" fill="#ED876D" width="109.97" height="1.325"/>
				<rect x="56.042" y="104.887" clip-path="url(#SVGID_2_)" fill="#EE886E" width="109.97" height="1.326"/>
				<rect x="56.042" y="106.213" clip-path="url(#SVGID_2_)" fill="#EE896F" width="109.97" height="1.325"/>
				<rect x="56.042" y="107.538" clip-path="url(#SVGID_2_)" fill="#EE8A6F" width="109.97" height="1.325"/>
				<rect x="56.042" y="108.863" clip-path="url(#SVGID_2_)" fill="#EF8B70" width="109.97" height="1.326"/>
				<rect x="56.042" y="110.189" clip-path="url(#SVGID_2_)" fill="#EF8C71" width="109.97" height="1.325"/>
				<rect x="56.042" y="111.515" clip-path="url(#SVGID_2_)" fill="#EF8D71" width="109.97" height="1.326"/>
				<rect x="56.042" y="112.841" clip-path="url(#SVGID_2_)" fill="#F08E72" width="109.97" height="1.325"/>
				<rect x="56.042" y="114.166" clip-path="url(#SVGID_2_)" fill="#F08F72" width="109.97" height="1.326"/>
				<rect x="56.042" y="115.492" clip-path="url(#SVGID_2_)" fill="#F09073" width="109.97" height="1.325"/>
				<rect x="56.042" y="116.817" clip-path="url(#SVGID_2_)" fill="#F19174" width="109.97" height="1.325"/>
				<rect x="56.042" y="118.143" clip-path="url(#SVGID_2_)" fill="#F19274" width="109.97" height="1.326"/>
				<rect x="56.042" y="119.469" clip-path="url(#SVGID_2_)" fill="#F19375" width="109.97" height="1.326"/>
				<rect x="56.042" y="120.795" clip-path="url(#SVGID_2_)" fill="#F29476" width="109.97" height="1.325"/>
				<rect x="56.042" y="122.12" clip-path="url(#SVGID_2_)" fill="#F29576" width="109.97" height="1.325"/>
				<rect x="56.042" y="123.445" clip-path="url(#SVGID_2_)" fill="#F29677" width="109.97" height="1.326"/>
				<rect x="56.042" y="124.771" clip-path="url(#SVGID_2_)" fill="#F39778" width="109.97" height="1.325"/>
				<rect x="56.042" y="126.097" clip-path="url(#SVGID_2_)" fill="#F39878" width="109.97" height="1.326"/>
				<rect x="56.042" y="127.423" clip-path="url(#SVGID_2_)" fill="#F39979" width="109.97" height="1.325"/>
				<rect x="56.042" y="128.748" clip-path="url(#SVGID_2_)" fill="#F49A79" width="109.97" height="1.326"/>
				<rect x="56.042" y="130.074" clip-path="url(#SVGID_2_)" fill="#F49B7A" width="109.97" height="1.325"/>
				<rect x="56.042" y="131.399" clip-path="url(#SVGID_2_)" fill="#F49C7B" width="109.97" height="1.325"/>
				<rect x="56.042" y="132.725" clip-path="url(#SVGID_2_)" fill="#F59D7B" width="109.97" height="1.326"/>
				<rect x="56.042" y="134.051" clip-path="url(#SVGID_2_)" fill="#F59E7C" width="109.97" height="1.326"/>
				<rect x="56.042" y="135.377" clip-path="url(#SVGID_2_)" fill="#F59E7C" width="109.97" height="1.379"/>
				<rect x="74.291" y="30.423" clip-path="url(#SVGID_2_)" fill="#DB4E4A" width="78.038" height="0.229"/>
				<rect x="74.291" y="30.651" clip-path="url(#SVGID_2_)" fill="#DB4F4B" width="78.038" height="1.325"/>
				<rect x="74.291" y="31.977" clip-path="url(#SVGID_2_)" fill="#DB504B" width="78.038" height="1.326"/>
				<rect x="74.291" y="33.303" clip-path="url(#SVGID_2_)" fill="#DC514C" width="78.038" height="1.325"/>
				<rect x="74.291" y="34.628" clip-path="url(#SVGID_2_)" fill="#DC524C" width="78.038" height="1.326"/>
				<rect x="74.291" y="35.954" clip-path="url(#SVGID_2_)" fill="#DC534D" width="78.038" height="1.325"/>
				<rect x="74.291" y="37.279" clip-path="url(#SVGID_2_)" fill="#DD544E" width="78.038" height="1.326"/>
				<rect x="74.291" y="38.605" clip-path="url(#SVGID_2_)" fill="#DD554E" width="78.038" height="1.325"/>
				<rect x="74.291" y="39.931" clip-path="url(#SVGID_2_)" fill="#DD564F" width="78.038" height="1.325"/>
				<rect x="74.291" y="41.256" clip-path="url(#SVGID_2_)" fill="#DE5750" width="78.038" height="1.326"/>
				<rect x="74.291" y="42.582" clip-path="url(#SVGID_2_)" fill="#DE5850" width="78.038" height="1.325"/>
				<rect x="74.291" y="43.907" clip-path="url(#SVGID_2_)" fill="#DE5951" width="78.038" height="1.326"/>
				<rect x="74.291" y="45.233" clip-path="url(#SVGID_2_)" fill="#DF5A51" width="78.038" height="1.325"/>
				<rect x="74.291" y="46.559" clip-path="url(#SVGID_2_)" fill="#DF5B52" width="78.038" height="1.326"/>
				<rect x="74.291" y="47.885" clip-path="url(#SVGID_2_)" fill="#DF5C53" width="78.038" height="1.325"/>
				<rect x="74.291" y="49.21" clip-path="url(#SVGID_2_)" fill="#E05D53" width="78.038" height="1.326"/>
				<rect x="74.291" y="50.536" clip-path="url(#SVGID_2_)" fill="#E05E54" width="78.038" height="1.325"/>
				<rect x="74.291" y="51.862" clip-path="url(#SVGID_2_)" fill="#E05F55" width="78.038" height="1.325"/>
				<rect x="74.291" y="53.187" clip-path="url(#SVGID_2_)" fill="#E16055" width="78.038" height="1.326"/>
				<rect x="74.291" y="54.513" clip-path="url(#SVGID_2_)" fill="#E16156" width="78.038" height="1.325"/>
				<rect x="74.291" y="55.838" clip-path="url(#SVGID_2_)" fill="#E16257" width="78.038" height="1.326"/>
				<rect x="74.291" y="57.164" clip-path="url(#SVGID_2_)" fill="#E26357" width="78.038" height="1.325"/>
				<rect x="74.291" y="58.489" clip-path="url(#SVGID_2_)" fill="#E26458" width="78.038" height="1.326"/>
				<rect x="74.291" y="59.815" clip-path="url(#SVGID_2_)" fill="#E26558" width="78.038" height="1.325"/>
				<rect x="74.291" y="61.141" clip-path="url(#SVGID_2_)" fill="#E36659" width="78.038" height="1.326"/>
				<rect x="74.291" y="62.467" clip-path="url(#SVGID_2_)" fill="#E3675A" width="78.038" height="1.325"/>
				<rect x="74.291" y="63.792" clip-path="url(#SVGID_2_)" fill="#E3685A" width="78.038" height="1.326"/>
				<rect x="74.291" y="65.118" clip-path="url(#SVGID_2_)" fill="#E4695B" width="78.038" height="1.325"/>
				<rect x="74.291" y="66.443" clip-path="url(#SVGID_2_)" fill="#E46A5C" width="78.038" height="1.325"/>
				<rect x="74.291" y="67.769" clip-path="url(#SVGID_2_)" fill="#E46B5C" width="78.038" height="1.326"/>
				<rect x="74.291" y="69.095" clip-path="url(#SVGID_2_)" fill="#E56C5D" width="78.038" height="1.325"/>
				<rect x="74.291" y="70.42" clip-path="url(#SVGID_2_)" fill="#E56D5E" width="78.038" height="1.326"/>
				<rect x="74.291" y="71.746" clip-path="url(#SVGID_2_)" fill="#E56E5E" width="78.038" height="1.325"/>
				<rect x="74.291" y="73.071" clip-path="url(#SVGID_2_)" fill="#E6705F" width="78.038" height="1.326"/>
				<rect x="74.291" y="74.397" clip-path="url(#SVGID_2_)" fill="#E6715F" width="78.038" height="1.325"/>
				<rect x="74.291" y="75.723" clip-path="url(#SVGID_2_)" fill="#E67260" width="78.038" height="1.326"/>
				<rect x="74.291" y="77.049" clip-path="url(#SVGID_2_)" fill="#E77361" width="78.038" height="1.325"/>
				<rect x="74.291" y="78.374" clip-path="url(#SVGID_2_)" fill="#E77461" width="78.038" height="1.326"/>
				<rect x="74.291" y="79.7" clip-path="url(#SVGID_2_)" fill="#E77562" width="78.038" height="1.325"/>
				<rect x="74.291" y="81.025" clip-path="url(#SVGID_2_)" fill="#E87663" width="78.038" height="1.325"/>
				<rect x="74.291" y="82.351" clip-path="url(#SVGID_2_)" fill="#E87763" width="78.038" height="1.326"/>
				<rect x="74.291" y="83.677" clip-path="url(#SVGID_2_)" fill="#E87864" width="78.038" height="1.325"/>
				<rect x="74.291" y="85.002" clip-path="url(#SVGID_2_)" fill="#E97965" width="78.038" height="1.326"/>
				<rect x="74.291" y="86.328" clip-path="url(#SVGID_2_)" fill="#E97A65" width="78.038" height="1.325"/>
				<rect x="74.291" y="87.653" clip-path="url(#SVGID_2_)" fill="#E97B66" width="78.038" height="1.326"/>
				<rect x="74.291" y="88.979" clip-path="url(#SVGID_2_)" fill="#EA7C66" width="78.038" height="1.325"/>
				<rect x="74.291" y="90.305" clip-path="url(#SVGID_2_)" fill="#EA7D67" width="78.038" height="1.326"/>
				<rect x="74.291" y="91.631" clip-path="url(#SVGID_2_)" fill="#EA7E68" width="78.038" height="1.325"/>
				<rect x="74.291" y="92.956" clip-path="url(#SVGID_2_)" fill="#EB7F68" width="78.038" height="1.325"/>
				<rect x="74.291" y="94.281" clip-path="url(#SVGID_2_)" fill="#EB8069" width="78.038" height="1.326"/>
				<rect x="74.291" y="95.607" clip-path="url(#SVGID_2_)" fill="#EB816A" width="78.038" height="1.325"/>
				<rect x="74.291" y="96.933" clip-path="url(#SVGID_2_)" fill="#EC826A" width="78.038" height="1.326"/>
				<rect x="74.291" y="98.259" clip-path="url(#SVGID_2_)" fill="#EC836B" width="78.038" height="1.325"/>
				<rect x="74.291" y="99.584" clip-path="url(#SVGID_2_)" fill="#EC846C" width="78.038" height="1.326"/>
				<rect x="74.291" y="100.91" clip-path="url(#SVGID_2_)" fill="#ED856C" width="78.038" height="1.325"/>
				<rect x="74.291" y="102.235" clip-path="url(#SVGID_2_)" fill="#ED866D" width="78.038" height="1.326"/>
				<rect x="74.291" y="103.562" clip-path="url(#SVGID_2_)" fill="#ED876D" width="78.038" height="1.325"/>
				<rect x="74.291" y="104.887" clip-path="url(#SVGID_2_)" fill="#EE886E" width="78.038" height="1.326"/>
				<rect x="74.291" y="106.213" clip-path="url(#SVGID_2_)" fill="#EE896F" width="78.038" height="1.325"/>
				<rect x="74.291" y="107.538" clip-path="url(#SVGID_2_)" fill="#EE8A6F" width="78.038" height="1.325"/>
				<rect x="74.291" y="108.863" clip-path="url(#SVGID_2_)" fill="#EF8B70" width="78.038" height="1.326"/>
				<rect x="74.291" y="110.189" clip-path="url(#SVGID_2_)" fill="#EF8C71" width="78.038" height="1.325"/>
				<rect x="74.291" y="111.515" clip-path="url(#SVGID_2_)" fill="#EF8D71" width="78.038" height="1.326"/>
				<rect x="74.291" y="112.841" clip-path="url(#SVGID_2_)" fill="#F08E72" width="78.038" height="1.325"/>
				<rect x="74.291" y="114.166" clip-path="url(#SVGID_2_)" fill="#F08F72" width="78.038" height="1.326"/>
				<rect x="74.291" y="115.492" clip-path="url(#SVGID_2_)" fill="#F09073" width="78.038" height="1.325"/>
				<rect x="74.291" y="116.817" clip-path="url(#SVGID_2_)" fill="#F19174" width="78.038" height="1.325"/>
				<rect x="74.291" y="118.143" clip-path="url(#SVGID_2_)" fill="#F19274" width="78.038" height="1.326"/>
				<rect x="74.291" y="119.469" clip-path="url(#SVGID_2_)" fill="#F19375" width="78.038" height="1.326"/>
				<rect x="74.291" y="120.795" clip-path="url(#SVGID_2_)" fill="#F29476" width="78.038" height="0.456"/>
			</g>
		</g>
		<g id="Triangle-2-Copy-4_5_">
			<g>
				<defs>
					<path id="SVGID_3_" d="M23.33,121.251l78.037-25.356L36.956,30.423L23.33,121.251z M27.244,16.169
						c0.886-5.908,5.001-7.245,9.191-2.986l78.991,80.291c4.19,4.258,2.981,9.207-2.702,11.053L19.215,134.91
						c-5.682,1.846-9.569-1.446-8.682-7.354L27.244,16.169z"/>
				</defs>
				<clipPath id="SVGID_4_">
					<use xlink:href="#SVGID_3_"  overflow="visible"/>
				</clipPath>
				<rect x="9.646" y="8.924" clip-path="url(#SVGID_4_)" fill="#D64041" width="109.97" height="1.84"/>
				<rect x="9.646" y="10.767" clip-path="url(#SVGID_4_)" fill="#D64041" width="109.97" height="1.325"/>
				<rect x="9.646" y="12.092" clip-path="url(#SVGID_4_)" fill="#D64142" width="109.97" height="1.326"/>
				<rect x="9.646" y="13.418" clip-path="url(#SVGID_4_)" fill="#D74242" width="109.97" height="1.325"/>
				<rect x="9.646" y="14.743" clip-path="url(#SVGID_4_)" fill="#D74343" width="109.97" height="1.326"/>
				<rect x="9.646" y="16.069" clip-path="url(#SVGID_4_)" fill="#D74444" width="109.97" height="1.325"/>
				<rect x="9.646" y="17.395" clip-path="url(#SVGID_4_)" fill="#D84544" width="109.97" height="1.326"/>
				<rect x="9.646" y="18.721" clip-path="url(#SVGID_4_)" fill="#D84645" width="109.97" height="1.325"/>
				<rect x="9.646" y="20.046" clip-path="url(#SVGID_4_)" fill="#D84745" width="109.97" height="1.326"/>
				<rect x="9.646" y="21.372" clip-path="url(#SVGID_4_)" fill="#D94846" width="109.97" height="1.325"/>
				<rect x="9.646" y="22.697" clip-path="url(#SVGID_4_)" fill="#D94947" width="109.97" height="1.326"/>
				<rect x="9.646" y="24.023" clip-path="url(#SVGID_4_)" fill="#D94A47" width="109.97" height="1.325"/>
				<rect x="9.646" y="25.349" clip-path="url(#SVGID_4_)" fill="#DA4B48" width="109.97" height="1.325"/>
				<rect x="9.646" y="26.674" clip-path="url(#SVGID_4_)" fill="#DA4C49" width="109.97" height="1.326"/>
				<rect x="9.646" y="28" clip-path="url(#SVGID_4_)" fill="#DA4D49" width="109.97" height="1.325"/>
				<rect x="9.646" y="29.325" clip-path="url(#SVGID_4_)" fill="#DB4E4A" width="109.97" height="1.326"/>
				<rect x="9.646" y="30.651" clip-path="url(#SVGID_4_)" fill="#DB4F4B" width="109.97" height="1.325"/>
				<rect x="9.646" y="31.977" clip-path="url(#SVGID_4_)" fill="#DB504B" width="109.97" height="1.326"/>
				<rect x="9.646" y="33.303" clip-path="url(#SVGID_4_)" fill="#DC514C" width="109.97" height="1.325"/>
				<rect x="9.646" y="34.628" clip-path="url(#SVGID_4_)" fill="#DC524C" width="109.97" height="1.326"/>
				<rect x="9.646" y="35.954" clip-path="url(#SVGID_4_)" fill="#DC534D" width="109.97" height="1.325"/>
				<rect x="9.646" y="37.279" clip-path="url(#SVGID_4_)" fill="#DD544E" width="109.97" height="1.326"/>
				<rect x="9.646" y="38.605" clip-path="url(#SVGID_4_)" fill="#DD554E" width="109.97" height="1.325"/>
				<rect x="9.646" y="39.931" clip-path="url(#SVGID_4_)" fill="#DD564F" width="109.97" height="1.325"/>
				<rect x="9.646" y="41.256" clip-path="url(#SVGID_4_)" fill="#DE5750" width="109.97" height="1.326"/>
				<rect x="9.646" y="42.582" clip-path="url(#SVGID_4_)" fill="#DE5850" width="109.97" height="1.325"/>
				<rect x="9.646" y="43.907" clip-path="url(#SVGID_4_)" fill="#DE5951" width="109.97" height="1.326"/>
				<rect x="9.646" y="45.233" clip-path="url(#SVGID_4_)" fill="#DF5A51" width="109.97" height="1.325"/>
				<rect x="9.646" y="46.559" clip-path="url(#SVGID_4_)" fill="#DF5B52" width="109.97" height="1.326"/>
				<rect x="9.646" y="47.885" clip-path="url(#SVGID_4_)" fill="#DF5C53" width="109.97" height="1.325"/>
				<rect x="9.646" y="49.21" clip-path="url(#SVGID_4_)" fill="#E05D53" width="109.97" height="1.326"/>
				<rect x="9.646" y="50.536" clip-path="url(#SVGID_4_)" fill="#E05E54" width="109.97" height="1.325"/>
				<rect x="9.646" y="51.862" clip-path="url(#SVGID_4_)" fill="#E05F55" width="109.97" height="1.325"/>
				<rect x="9.646" y="53.187" clip-path="url(#SVGID_4_)" fill="#E16055" width="109.97" height="1.326"/>
				<rect x="9.646" y="54.513" clip-path="url(#SVGID_4_)" fill="#E16156" width="109.97" height="1.325"/>
				<rect x="9.646" y="55.838" clip-path="url(#SVGID_4_)" fill="#E16257" width="109.97" height="1.326"/>
				<rect x="9.646" y="57.164" clip-path="url(#SVGID_4_)" fill="#E26357" width="109.97" height="1.325"/>
				<rect x="9.646" y="58.489" clip-path="url(#SVGID_4_)" fill="#E26458" width="109.97" height="1.326"/>
				<rect x="9.646" y="59.815" clip-path="url(#SVGID_4_)" fill="#E26558" width="109.97" height="1.325"/>
				<rect x="9.646" y="61.141" clip-path="url(#SVGID_4_)" fill="#E36659" width="109.97" height="1.326"/>
				<rect x="9.646" y="62.467" clip-path="url(#SVGID_4_)" fill="#E3675A" width="109.97" height="1.325"/>
				<rect x="9.646" y="63.792" clip-path="url(#SVGID_4_)" fill="#E3685A" width="109.97" height="1.326"/>
				<rect x="9.646" y="65.118" clip-path="url(#SVGID_4_)" fill="#E4695B" width="109.97" height="1.325"/>
				<rect x="9.646" y="66.443" clip-path="url(#SVGID_4_)" fill="#E46A5C" width="109.97" height="1.325"/>
				<rect x="9.646" y="67.769" clip-path="url(#SVGID_4_)" fill="#E46B5C" width="109.97" height="1.326"/>
				<rect x="9.646" y="69.095" clip-path="url(#SVGID_4_)" fill="#E56C5D" width="109.97" height="1.325"/>
				<rect x="9.646" y="70.42" clip-path="url(#SVGID_4_)" fill="#E56D5E" width="109.97" height="1.326"/>
				<rect x="9.646" y="71.746" clip-path="url(#SVGID_4_)" fill="#E56E5E" width="109.97" height="1.325"/>
				<rect x="9.646" y="73.071" clip-path="url(#SVGID_4_)" fill="#E6705F" width="109.97" height="1.326"/>
				<rect x="9.646" y="74.397" clip-path="url(#SVGID_4_)" fill="#E6715F" width="109.97" height="1.325"/>
				<rect x="9.646" y="75.723" clip-path="url(#SVGID_4_)" fill="#E67260" width="109.97" height="1.326"/>
				<rect x="9.646" y="77.049" clip-path="url(#SVGID_4_)" fill="#E77361" width="109.97" height="1.325"/>
				<rect x="9.646" y="78.374" clip-path="url(#SVGID_4_)" fill="#E77461" width="109.97" height="1.326"/>
				<rect x="9.646" y="79.7" clip-path="url(#SVGID_4_)" fill="#E77562" width="109.97" height="1.325"/>
				<rect x="9.646" y="81.025" clip-path="url(#SVGID_4_)" fill="#E87663" width="109.97" height="1.325"/>
				<rect x="9.646" y="82.351" clip-path="url(#SVGID_4_)" fill="#E87763" width="109.97" height="1.326"/>
				<rect x="9.646" y="83.677" clip-path="url(#SVGID_4_)" fill="#E87864" width="109.97" height="1.325"/>
				<rect x="9.646" y="85.002" clip-path="url(#SVGID_4_)" fill="#E97965" width="109.97" height="1.326"/>
				<rect x="9.646" y="86.328" clip-path="url(#SVGID_4_)" fill="#E97A65" width="109.97" height="1.325"/>
				<rect x="9.646" y="87.653" clip-path="url(#SVGID_4_)" fill="#E97B66" width="109.97" height="1.326"/>
				<rect x="9.646" y="88.979" clip-path="url(#SVGID_4_)" fill="#EA7C66" width="109.97" height="1.325"/>
				<rect x="9.646" y="90.305" clip-path="url(#SVGID_4_)" fill="#EA7D67" width="109.97" height="1.326"/>
				<rect x="9.646" y="91.631" clip-path="url(#SVGID_4_)" fill="#EA7E68" width="109.97" height="1.325"/>
				<rect x="9.646" y="92.956" clip-path="url(#SVGID_4_)" fill="#EB7F68" width="109.97" height="1.325"/>
				<rect x="9.646" y="94.281" clip-path="url(#SVGID_4_)" fill="#EB8069" width="109.97" height="1.326"/>
				<rect x="9.646" y="95.607" clip-path="url(#SVGID_4_)" fill="#EB816A" width="109.97" height="1.325"/>
				<rect x="9.646" y="96.933" clip-path="url(#SVGID_4_)" fill="#EC826A" width="109.97" height="1.326"/>
				<rect x="9.646" y="98.259" clip-path="url(#SVGID_4_)" fill="#EC836B" width="109.97" height="1.325"/>
				<rect x="9.646" y="99.584" clip-path="url(#SVGID_4_)" fill="#EC846C" width="109.97" height="1.326"/>
				<rect x="9.646" y="100.91" clip-path="url(#SVGID_4_)" fill="#ED856C" width="109.97" height="1.325"/>
				<rect x="9.646" y="102.235" clip-path="url(#SVGID_4_)" fill="#ED866D" width="109.97" height="1.326"/>
				<rect x="9.646" y="103.562" clip-path="url(#SVGID_4_)" fill="#ED876D" width="109.97" height="1.325"/>
				<rect x="9.646" y="104.887" clip-path="url(#SVGID_4_)" fill="#EE886E" width="109.97" height="1.326"/>
				<rect x="9.646" y="106.213" clip-path="url(#SVGID_4_)" fill="#EE896F" width="109.97" height="1.325"/>
				<rect x="9.646" y="107.538" clip-path="url(#SVGID_4_)" fill="#EE8A6F" width="109.97" height="1.325"/>
				<rect x="9.646" y="108.863" clip-path="url(#SVGID_4_)" fill="#EF8B70" width="109.97" height="1.326"/>
				<rect x="9.646" y="110.189" clip-path="url(#SVGID_4_)" fill="#EF8C71" width="109.97" height="1.325"/>
				<rect x="9.646" y="111.515" clip-path="url(#SVGID_4_)" fill="#EF8D71" width="109.97" height="1.326"/>
				<rect x="9.646" y="112.841" clip-path="url(#SVGID_4_)" fill="#F08E72" width="109.97" height="1.325"/>
				<rect x="9.646" y="114.166" clip-path="url(#SVGID_4_)" fill="#F08F72" width="109.97" height="1.326"/>
				<rect x="9.646" y="115.492" clip-path="url(#SVGID_4_)" fill="#F09073" width="109.97" height="1.325"/>
				<rect x="9.646" y="116.817" clip-path="url(#SVGID_4_)" fill="#F19174" width="109.97" height="1.325"/>
				<rect x="9.646" y="118.143" clip-path="url(#SVGID_4_)" fill="#F19274" width="109.97" height="1.326"/>
				<rect x="9.646" y="119.469" clip-path="url(#SVGID_4_)" fill="#F19375" width="109.97" height="1.326"/>
				<rect x="9.646" y="120.795" clip-path="url(#SVGID_4_)" fill="#F29476" width="109.97" height="1.325"/>
				<rect x="9.646" y="122.12" clip-path="url(#SVGID_4_)" fill="#F29576" width="109.97" height="1.325"/>
				<rect x="9.646" y="123.445" clip-path="url(#SVGID_4_)" fill="#F29677" width="109.97" height="1.326"/>
				<rect x="9.646" y="124.771" clip-path="url(#SVGID_4_)" fill="#F39778" width="109.97" height="1.325"/>
				<rect x="9.646" y="126.097" clip-path="url(#SVGID_4_)" fill="#F39878" width="109.97" height="1.326"/>
				<rect x="9.646" y="127.423" clip-path="url(#SVGID_4_)" fill="#F39979" width="109.97" height="1.325"/>
				<rect x="9.646" y="128.748" clip-path="url(#SVGID_4_)" fill="#F49A79" width="109.97" height="1.326"/>
				<rect x="9.646" y="130.074" clip-path="url(#SVGID_4_)" fill="#F49B7A" width="109.97" height="1.325"/>
				<rect x="9.646" y="131.399" clip-path="url(#SVGID_4_)" fill="#F49C7B" width="109.97" height="1.325"/>
				<rect x="9.646" y="132.725" clip-path="url(#SVGID_4_)" fill="#F59D7B" width="109.97" height="1.326"/>
				<rect x="9.646" y="134.051" clip-path="url(#SVGID_4_)" fill="#F59E7C" width="109.97" height="1.326"/>
				<rect x="9.646" y="135.377" clip-path="url(#SVGID_4_)" fill="#F59E7C" width="109.97" height="1.379"/>
				<rect x="23.33" y="30.423" clip-path="url(#SVGID_4_)" fill="#DB4E4A" width="78.037" height="0.229"/>
				<rect x="23.33" y="30.651" clip-path="url(#SVGID_4_)" fill="#DB4F4B" width="78.037" height="1.325"/>
				<rect x="23.33" y="31.977" clip-path="url(#SVGID_4_)" fill="#DB504B" width="78.037" height="1.326"/>
				<rect x="23.33" y="33.303" clip-path="url(#SVGID_4_)" fill="#DC514C" width="78.037" height="1.325"/>
				<rect x="23.33" y="34.628" clip-path="url(#SVGID_4_)" fill="#DC524C" width="78.037" height="1.326"/>
				<rect x="23.33" y="35.954" clip-path="url(#SVGID_4_)" fill="#DC534D" width="78.037" height="1.325"/>
				<rect x="23.33" y="37.279" clip-path="url(#SVGID_4_)" fill="#DD544E" width="78.037" height="1.326"/>
				<rect x="23.33" y="38.605" clip-path="url(#SVGID_4_)" fill="#DD554E" width="78.037" height="1.325"/>
				<rect x="23.33" y="39.931" clip-path="url(#SVGID_4_)" fill="#DD564F" width="78.037" height="1.325"/>
				<rect x="23.33" y="41.256" clip-path="url(#SVGID_4_)" fill="#DE5750" width="78.037" height="1.326"/>
				<rect x="23.33" y="42.582" clip-path="url(#SVGID_4_)" fill="#DE5850" width="78.037" height="1.325"/>
				<rect x="23.33" y="43.907" clip-path="url(#SVGID_4_)" fill="#DE5951" width="78.037" height="1.326"/>
				<rect x="23.33" y="45.233" clip-path="url(#SVGID_4_)" fill="#DF5A51" width="78.037" height="1.325"/>
				<rect x="23.33" y="46.559" clip-path="url(#SVGID_4_)" fill="#DF5B52" width="78.037" height="1.326"/>
				<rect x="23.33" y="47.885" clip-path="url(#SVGID_4_)" fill="#DF5C53" width="78.037" height="1.325"/>
				<rect x="23.33" y="49.21" clip-path="url(#SVGID_4_)" fill="#E05D53" width="78.037" height="1.326"/>
				<rect x="23.33" y="50.536" clip-path="url(#SVGID_4_)" fill="#E05E54" width="78.037" height="1.325"/>
				<rect x="23.33" y="51.862" clip-path="url(#SVGID_4_)" fill="#E05F55" width="78.037" height="1.325"/>
				<rect x="23.33" y="53.187" clip-path="url(#SVGID_4_)" fill="#E16055" width="78.037" height="1.326"/>
				<rect x="23.33" y="54.513" clip-path="url(#SVGID_4_)" fill="#E16156" width="78.037" height="1.325"/>
				<rect x="23.33" y="55.838" clip-path="url(#SVGID_4_)" fill="#E16257" width="78.037" height="1.326"/>
				<rect x="23.33" y="57.164" clip-path="url(#SVGID_4_)" fill="#E26357" width="78.037" height="1.325"/>
				<rect x="23.33" y="58.489" clip-path="url(#SVGID_4_)" fill="#E26458" width="78.037" height="1.326"/>
				<rect x="23.33" y="59.815" clip-path="url(#SVGID_4_)" fill="#E26558" width="78.037" height="1.325"/>
				<rect x="23.33" y="61.141" clip-path="url(#SVGID_4_)" fill="#E36659" width="78.037" height="1.326"/>
				<rect x="23.33" y="62.467" clip-path="url(#SVGID_4_)" fill="#E3675A" width="78.037" height="1.325"/>
				<rect x="23.33" y="63.792" clip-path="url(#SVGID_4_)" fill="#E3685A" width="78.037" height="1.326"/>
				<rect x="23.33" y="65.118" clip-path="url(#SVGID_4_)" fill="#E4695B" width="78.037" height="1.325"/>
				<rect x="23.33" y="66.443" clip-path="url(#SVGID_4_)" fill="#E46A5C" width="78.037" height="1.325"/>
				<rect x="23.33" y="67.769" clip-path="url(#SVGID_4_)" fill="#E46B5C" width="78.037" height="1.326"/>
				<rect x="23.33" y="69.095" clip-path="url(#SVGID_4_)" fill="#E56C5D" width="78.037" height="1.325"/>
				<rect x="23.33" y="70.42" clip-path="url(#SVGID_4_)" fill="#E56D5E" width="78.037" height="1.326"/>
				<rect x="23.33" y="71.746" clip-path="url(#SVGID_4_)" fill="#E56E5E" width="78.037" height="1.325"/>
				<rect x="23.33" y="73.071" clip-path="url(#SVGID_4_)" fill="#E6705F" width="78.037" height="1.326"/>
				<rect x="23.33" y="74.397" clip-path="url(#SVGID_4_)" fill="#E6715F" width="78.037" height="1.325"/>
				<rect x="23.33" y="75.723" clip-path="url(#SVGID_4_)" fill="#E67260" width="78.037" height="1.326"/>
				<rect x="23.33" y="77.049" clip-path="url(#SVGID_4_)" fill="#E77361" width="78.037" height="1.325"/>
				<rect x="23.33" y="78.374" clip-path="url(#SVGID_4_)" fill="#E77461" width="78.037" height="1.326"/>
				<rect x="23.33" y="79.7" clip-path="url(#SVGID_4_)" fill="#E77562" width="78.037" height="1.325"/>
				<rect x="23.33" y="81.025" clip-path="url(#SVGID_4_)" fill="#E87663" width="78.037" height="1.325"/>
				<rect x="23.33" y="82.351" clip-path="url(#SVGID_4_)" fill="#E87763" width="78.037" height="1.326"/>
				<rect x="23.33" y="83.677" clip-path="url(#SVGID_4_)" fill="#E87864" width="78.037" height="1.325"/>
				<rect x="23.33" y="85.002" clip-path="url(#SVGID_4_)" fill="#E97965" width="78.037" height="1.326"/>
				<rect x="23.33" y="86.328" clip-path="url(#SVGID_4_)" fill="#E97A65" width="78.037" height="1.325"/>
				<rect x="23.33" y="87.653" clip-path="url(#SVGID_4_)" fill="#E97B66" width="78.037" height="1.326"/>
				<rect x="23.33" y="88.979" clip-path="url(#SVGID_4_)" fill="#EA7C66" width="78.037" height="1.325"/>
				<rect x="23.33" y="90.305" clip-path="url(#SVGID_4_)" fill="#EA7D67" width="78.037" height="1.326"/>
				<rect x="23.33" y="91.631" clip-path="url(#SVGID_4_)" fill="#EA7E68" width="78.037" height="1.325"/>
				<rect x="23.33" y="92.956" clip-path="url(#SVGID_4_)" fill="#EB7F68" width="78.037" height="1.325"/>
				<rect x="23.33" y="94.281" clip-path="url(#SVGID_4_)" fill="#EB8069" width="78.037" height="1.326"/>
				<rect x="23.33" y="95.607" clip-path="url(#SVGID_4_)" fill="#EB816A" width="78.037" height="1.325"/>
				<rect x="23.33" y="96.933" clip-path="url(#SVGID_4_)" fill="#EC826A" width="78.037" height="1.326"/>
				<rect x="23.33" y="98.259" clip-path="url(#SVGID_4_)" fill="#EC836B" width="78.037" height="1.325"/>
				<rect x="23.33" y="99.584" clip-path="url(#SVGID_4_)" fill="#EC846C" width="78.037" height="1.326"/>
				<rect x="23.33" y="100.91" clip-path="url(#SVGID_4_)" fill="#ED856C" width="78.037" height="1.325"/>
				<rect x="23.33" y="102.235" clip-path="url(#SVGID_4_)" fill="#ED866D" width="78.037" height="1.326"/>
				<rect x="23.33" y="103.562" clip-path="url(#SVGID_4_)" fill="#ED876D" width="78.037" height="1.325"/>
				<rect x="23.33" y="104.887" clip-path="url(#SVGID_4_)" fill="#EE886E" width="78.037" height="1.326"/>
				<rect x="23.33" y="106.213" clip-path="url(#SVGID_4_)" fill="#EE896F" width="78.037" height="1.325"/>
				<rect x="23.33" y="107.538" clip-path="url(#SVGID_4_)" fill="#EE8A6F" width="78.037" height="1.325"/>
				<rect x="23.33" y="108.863" clip-path="url(#SVGID_4_)" fill="#EF8B70" width="78.037" height="1.326"/>
				<rect x="23.33" y="110.189" clip-path="url(#SVGID_4_)" fill="#EF8C71" width="78.037" height="1.325"/>
				<rect x="23.33" y="111.515" clip-path="url(#SVGID_4_)" fill="#EF8D71" width="78.037" height="1.326"/>
				<rect x="23.33" y="112.841" clip-path="url(#SVGID_4_)" fill="#F08E72" width="78.037" height="1.325"/>
				<rect x="23.33" y="114.166" clip-path="url(#SVGID_4_)" fill="#F08F72" width="78.037" height="1.326"/>
				<rect x="23.33" y="115.492" clip-path="url(#SVGID_4_)" fill="#F09073" width="78.037" height="1.325"/>
				<rect x="23.33" y="116.817" clip-path="url(#SVGID_4_)" fill="#F19174" width="78.037" height="1.325"/>
				<rect x="23.33" y="118.143" clip-path="url(#SVGID_4_)" fill="#F19274" width="78.037" height="1.326"/>
				<rect x="23.33" y="119.469" clip-path="url(#SVGID_4_)" fill="#F19375" width="78.037" height="1.326"/>
				<rect x="23.33" y="120.795" clip-path="url(#SVGID_4_)" fill="#F29476" width="78.037" height="0.456"/>
			</g>
		</g>
	</g>
	<g id="Page-1_5_">
		<g id="Black_2_">
			<g id="Group-2_4_" transform="translate(461.000000, 435.000000)">
				<g id="Group_5_" transform="translate(434.000000, 97.000000)">
					<g id="Triangle-6-Copy-2_5_">
						<path fill="#FFFFFF" d="M-336.446-438.917h16.264l-8.132-15.4L-336.446-438.917z M-331.474-471.504
							c1.744-3.304,4.572-3.305,6.317,0l19.761,37.424c1.744,3.303,0.13,5.981-3.605,5.981h-38.627
							c-3.736,0-5.351-2.678-3.605-5.981L-331.474-471.504z"/>
					</g>
					<g id="Triangle-6-Copy-3_5_">
						<path fill="#FFFFFF" d="M-679.025-438.917h16.263l-8.132-15.4L-679.025-438.917z M-674.053-471.504
							c1.745-3.304,4.572-3.305,6.317,0l19.761,37.424c1.745,3.303,0.129,5.981-3.606,5.981h-38.626
							c-3.736,0-5.351-2.678-3.606-5.981L-674.053-471.504z"/>
					</g>
					<g id="ALPHACAT-Copy_5_">
						<path fill="#FFFFFF" d="M-615.074-473.208v35.252h14.088v9.952h-25.838v-45.204H-615.074z M-569.657-452.465h3.897
							c4.316,0,6.475-1.878,6.475-5.635c0-3.758-2.158-5.636-6.475-5.636h-3.897V-452.465z M-569.657-428.004h-11.75v-45.204h18.705
							c5.075,0,8.963,1.319,11.66,3.957c2.698,2.638,4.047,6.354,4.047,11.151c0,4.796-1.349,8.513-4.047,11.15
							c-2.697,2.639-6.585,3.957-11.66,3.957h-6.955V-428.004z M-515.486-455.762h16.966v-17.446h11.75v45.204h-11.75v-18.646
							h-16.966v18.646h-11.751v-45.204h11.751V-455.762z M-439.195-444.79l-5.275-15.049l-5.276,15.049H-439.195z M-436.077-435.858
							h-16.786l-2.698,7.854h-12.53l17.206-45.204h12.83l17.206,45.204h-12.53L-436.077-435.858z M-371.296-458.1
							c-2.718-3.317-6.075-4.977-10.072-4.977c-1.758,0-3.387,0.32-4.886,0.96c-1.499,0.639-2.787,1.508-3.867,2.607
							c-1.079,1.099-1.928,2.407-2.548,3.927c-0.619,1.519-0.93,3.157-0.93,4.916c0,1.799,0.311,3.457,0.93,4.976
							c0.62,1.519,1.479,2.839,2.578,3.957c1.1,1.119,2.389,1.999,3.867,2.638c1.479,0.64,3.077,0.959,4.796,0.959
							c3.757,0,7.134-1.598,10.132-4.795v13.908l-1.199,0.42c-1.799,0.639-3.477,1.109-5.036,1.408
							c-1.559,0.3-3.097,0.45-4.616,0.45c-3.117,0-6.105-0.59-8.963-1.769s-5.375-2.838-7.554-4.977
							c-2.179-2.138-3.927-4.676-5.246-7.613c-1.318-2.938-1.979-6.146-1.979-9.623c0-3.477,0.65-6.664,1.949-9.562
							s3.037-5.396,5.216-7.494c2.178-2.099,4.706-3.737,7.583-4.916c2.878-1.18,5.896-1.769,9.054-1.769
							c1.799,0,3.567,0.189,5.305,0.569c1.739,0.38,3.567,0.97,5.486,1.769V-458.1z M-270.511-463.256v35.252h-11.75v-35.252h-9.652
							v-9.952h31.056v9.952H-270.511z"/>
					</g>
				</g>
			</g>
		</g>
	</g>
</g>
</svg>
