<?xml version="1.0" encoding="utf-8"?>
<!-- Generator: Adobe Illustrator 16.0.0, SVG Export Plug-In . SVG Version: 6.00 Build 0)  -->
<!DOCTYPE svg PUBLIC "-//W3C//DTD SVG 1.1//EN" "http://www.w3.org/Graphics/SVG/1.1/DTD/svg11.dtd">
<svg version="1.1" id="图层_1" xmlns="http://www.w3.org/2000/svg" xmlns:xlink="http://www.w3.org/1999/xlink" x="0px" y="0px"
	 width="464px" height="246.896px" viewBox="0 0 464 246.896" enable-background="new 0 0 464 246.896" xml:space="preserve">
<g id="Page-1_1_">
	<g id="Black">
		<g id="Group_1_" transform="translate(678.000000, 318.000000)">
			<g id="Triangle-6-Copy-2_1_">
				<path fill="#FFFFFF" d="M-263.453-80.262h-54.288l27.143-51.405L-263.453-80.262z M-299.061-91.522h16.928l-8.465-16.03
					L-299.061-91.522z"/>
			</g>
			<g id="Triangle-6-Copy-3_1_">
				<path fill="#FFFFFF" d="M-620.029-80.262h-54.286l27.143-51.405L-620.029-80.262z M-655.636-91.522h16.929l-8.464-16.03
					L-655.636-91.522z"/>
			</g>
			<g id="ALPHACAT-Copy_1_">
				<path fill="#FFFFFF" d="M-589.071-127.214v36.691h14.664v10.359h-26.894v-47.05H-589.071z M-541.799-105.623h4.057
					c4.493,0,6.739-1.956,6.739-5.866s-2.247-5.865-6.739-5.865h-4.057V-105.623z M-541.799-80.164h-12.23v-47.05h19.469
					c5.284,0,9.329,1.373,12.137,4.118c2.808,2.745,4.212,6.615,4.212,11.606c0,4.993-1.404,8.86-4.212,11.607
					c-2.809,2.746-6.853,4.118-12.137,4.118h-7.238V-80.164z M-485.416-109.055h17.659v-18.159h12.231v47.05h-12.231v-19.407
					h-17.659v19.407h-12.231v-47.05h12.231V-109.055z M-406.008-97.636l-5.491-15.663l-5.491,15.663H-406.008z M-402.763-88.339
					h-17.472l-2.809,8.175h-13.042l17.909-47.05h13.354l17.91,47.05h-13.043L-402.763-88.339z M-335.335-111.489
					c-2.83-3.453-6.324-5.179-10.483-5.179c-1.831,0-3.526,0.333-5.085,0.998c-1.561,0.667-2.902,1.571-4.026,2.715
					c-1.124,1.144-2.007,2.506-2.652,4.087c-0.644,1.581-0.967,3.286-0.967,5.117c0,1.872,0.323,3.598,0.967,5.179
					c0.646,1.581,1.54,2.953,2.684,4.118c1.144,1.165,2.485,2.08,4.024,2.746c1.539,0.666,3.204,0.998,4.992,0.998
					c3.91,0,7.426-1.664,10.546-4.992v14.477l-1.248,0.436c-1.872,0.666-3.619,1.155-5.241,1.467s-3.224,0.468-4.806,0.468
					c-3.245,0-6.354-0.614-9.329-1.841s-5.595-2.953-7.863-5.179c-2.267-2.226-4.087-4.867-5.46-7.925
					c-1.373-3.058-2.059-6.396-2.059-10.015c0-3.619,0.676-6.937,2.028-9.954c1.352-3.016,3.162-5.616,5.429-7.8
					c2.266-2.184,4.898-3.889,7.894-5.117c2.995-1.227,6.136-1.84,9.422-1.84c1.872,0,3.713,0.197,5.522,0.592
					c1.81,0.396,3.713,1.009,5.71,1.841V-111.489z M-230.432-116.855v36.691h-12.23v-36.691h-10.047v-10.358h32.324v10.358H-230.432
					z"/>
			</g>
			<g id="Triangle-2-Copy-3_1_">
				<g>
					<defs>
						<path id="SVGID_1_" d="M-460.29-227.477l81.225,26.392l-14.182-94.537L-460.29-227.477z M-383.138-310.459l17.393,115.937
							c0.923,6.149-3.124,9.577-9.037,7.655l-97.329-31.624c-5.915-1.922-7.173-7.073-2.813-11.505l82.218-83.571
							C-388.345-318-384.061-316.608-383.138-310.459z"/>
					</defs>
					<clipPath id="SVGID_2_">
						<use xlink:href="#SVGID_1_"  overflow="visible"/>
					</clipPath>
					<rect x="-479.284" y="-318" clip-path="url(#SVGID_2_)" fill="#D64041" width="114.462" height="1.819"/>
					<rect x="-479.284" y="-316.16" clip-path="url(#SVGID_2_)" fill="#D64041" width="114.462" height="1.381"/>
					<rect x="-479.284" y="-314.779" clip-path="url(#SVGID_2_)" fill="#D64142" width="114.462" height="1.381"/>
					<rect x="-479.284" y="-313.398" clip-path="url(#SVGID_2_)" fill="#D74242" width="114.462" height="1.381"/>
					<rect x="-479.284" y="-312.017" clip-path="url(#SVGID_2_)" fill="#D74343" width="114.462" height="1.381"/>
					<rect x="-479.284" y="-310.636" clip-path="url(#SVGID_2_)" fill="#D74444" width="114.462" height="1.382"/>
					<rect x="-479.284" y="-309.254" clip-path="url(#SVGID_2_)" fill="#D84544" width="114.462" height="1.381"/>
					<rect x="-479.284" y="-307.874" clip-path="url(#SVGID_2_)" fill="#D84645" width="114.462" height="1.381"/>
					<rect x="-479.284" y="-306.492" clip-path="url(#SVGID_2_)" fill="#D84745" width="114.462" height="1.381"/>
					<rect x="-479.284" y="-305.111" clip-path="url(#SVGID_2_)" fill="#D94846" width="114.462" height="1.382"/>
					<rect x="-479.284" y="-303.729" clip-path="url(#SVGID_2_)" fill="#D94947" width="114.462" height="1.381"/>
					<rect x="-479.284" y="-302.349" clip-path="url(#SVGID_2_)" fill="#D94A47" width="114.462" height="1.38"/>
					<rect x="-479.284" y="-300.968" clip-path="url(#SVGID_2_)" fill="#DA4B48" width="114.462" height="1.381"/>
					<rect x="-479.284" y="-299.587" clip-path="url(#SVGID_2_)" fill="#DA4C49" width="114.462" height="1.381"/>
					<rect x="-479.284" y="-298.206" clip-path="url(#SVGID_2_)" fill="#DA4D49" width="114.462" height="1.382"/>
					<rect x="-479.284" y="-296.824" clip-path="url(#SVGID_2_)" fill="#DB4E4A" width="114.462" height="1.381"/>
					<rect x="-479.284" y="-295.443" clip-path="url(#SVGID_2_)" fill="#DB4F4B" width="114.462" height="1.381"/>
					<rect x="-479.284" y="-294.062" clip-path="url(#SVGID_2_)" fill="#DB504B" width="114.462" height="1.381"/>
					<rect x="-479.284" y="-292.681" clip-path="url(#SVGID_2_)" fill="#DC514C" width="114.462" height="1.381"/>
					<rect x="-479.284" y="-291.3" clip-path="url(#SVGID_2_)" fill="#DC524C" width="114.462" height="1.381"/>
					<rect x="-479.284" y="-289.918" clip-path="url(#SVGID_2_)" fill="#DC534D" width="114.462" height="1.381"/>
					<rect x="-479.284" y="-288.538" clip-path="url(#SVGID_2_)" fill="#DD544E" width="114.462" height="1.381"/>
					<rect x="-479.284" y="-287.157" clip-path="url(#SVGID_2_)" fill="#DD554E" width="114.462" height="1.381"/>
					<rect x="-479.284" y="-285.775" clip-path="url(#SVGID_2_)" fill="#DD564F" width="114.462" height="1.381"/>
					<rect x="-479.284" y="-284.394" clip-path="url(#SVGID_2_)" fill="#DE5750" width="114.462" height="1.381"/>
					<rect x="-479.284" y="-283.013" clip-path="url(#SVGID_2_)" fill="#DE5850" width="114.462" height="1.381"/>
					<rect x="-479.284" y="-281.632" clip-path="url(#SVGID_2_)" fill="#DE5951" width="114.462" height="1.381"/>
					<rect x="-479.284" y="-280.251" clip-path="url(#SVGID_2_)" fill="#DF5A51" width="114.462" height="1.382"/>
					<rect x="-479.284" y="-278.869" clip-path="url(#SVGID_2_)" fill="#DF5B52" width="114.462" height="1.381"/>
					<rect x="-479.284" y="-277.488" clip-path="url(#SVGID_2_)" fill="#DF5C53" width="114.462" height="1.381"/>
					<rect x="-479.284" y="-276.107" clip-path="url(#SVGID_2_)" fill="#E05D53" width="114.462" height="1.381"/>
					<rect x="-479.284" y="-274.726" clip-path="url(#SVGID_2_)" fill="#E05E54" width="114.462" height="1.38"/>
					<rect x="-479.284" y="-273.346" clip-path="url(#SVGID_2_)" fill="#E05F55" width="114.462" height="1.382"/>
					<rect x="-479.284" y="-271.964" clip-path="url(#SVGID_2_)" fill="#E16055" width="114.462" height="1.381"/>
					<rect x="-479.284" y="-270.583" clip-path="url(#SVGID_2_)" fill="#E16156" width="114.462" height="1.381"/>
					<rect x="-479.284" y="-269.202" clip-path="url(#SVGID_2_)" fill="#E16257" width="114.462" height="1.381"/>
					<rect x="-479.284" y="-267.821" clip-path="url(#SVGID_2_)" fill="#E26357" width="114.462" height="1.381"/>
					<rect x="-479.284" y="-266.439" clip-path="url(#SVGID_2_)" fill="#E26458" width="114.462" height="1.381"/>
					<rect x="-479.284" y="-265.058" clip-path="url(#SVGID_2_)" fill="#E26558" width="114.462" height="1.381"/>
					<rect x="-479.284" y="-263.677" clip-path="url(#SVGID_2_)" fill="#E36659" width="114.462" height="1.381"/>
					<rect x="-479.284" y="-262.296" clip-path="url(#SVGID_2_)" fill="#E3675A" width="114.462" height="1.382"/>
					<rect x="-479.284" y="-260.915" clip-path="url(#SVGID_2_)" fill="#E3685A" width="114.462" height="1.381"/>
					<rect x="-479.284" y="-259.534" clip-path="url(#SVGID_2_)" fill="#E4695B" width="114.462" height="1.381"/>
					<rect x="-479.284" y="-258.152" clip-path="url(#SVGID_2_)" fill="#E46A5C" width="114.462" height="1.381"/>
					<rect x="-479.284" y="-256.771" clip-path="url(#SVGID_2_)" fill="#E46B5C" width="114.462" height="1.381"/>
					<rect x="-479.284" y="-255.391" clip-path="url(#SVGID_2_)" fill="#E56C5D" width="114.462" height="1.381"/>
					<rect x="-479.284" y="-254.009" clip-path="url(#SVGID_2_)" fill="#E56D5E" width="114.462" height="1.381"/>
					<rect x="-479.284" y="-252.628" clip-path="url(#SVGID_2_)" fill="#E56E5E" width="114.462" height="1.381"/>
					<rect x="-479.284" y="-251.247" clip-path="url(#SVGID_2_)" fill="#E6705F" width="114.462" height="1.381"/>
					<rect x="-479.284" y="-249.866" clip-path="url(#SVGID_2_)" fill="#E6715F" width="114.462" height="1.381"/>
					<rect x="-479.284" y="-248.485" clip-path="url(#SVGID_2_)" fill="#E67260" width="114.462" height="1.382"/>
					<rect x="-479.284" y="-247.103" clip-path="url(#SVGID_2_)" fill="#E77361" width="114.462" height="1.38"/>
					<rect x="-479.284" y="-245.723" clip-path="url(#SVGID_2_)" fill="#E77461" width="114.462" height="1.381"/>
					<rect x="-479.284" y="-244.341" clip-path="url(#SVGID_2_)" fill="#E77562" width="114.462" height="1.381"/>
					<rect x="-479.284" y="-242.96" clip-path="url(#SVGID_2_)" fill="#E87663" width="114.462" height="1.381"/>
					<rect x="-479.284" y="-241.579" clip-path="url(#SVGID_2_)" fill="#E87763" width="114.462" height="1.381"/>
					<rect x="-479.284" y="-240.198" clip-path="url(#SVGID_2_)" fill="#E87864" width="114.462" height="1.381"/>
					<rect x="-479.284" y="-238.817" clip-path="url(#SVGID_2_)" fill="#E97965" width="114.462" height="1.381"/>
					<rect x="-479.284" y="-237.436" clip-path="url(#SVGID_2_)" fill="#E97A65" width="114.462" height="1.381"/>
					<rect x="-479.284" y="-236.055" clip-path="url(#SVGID_2_)" fill="#E97B66" width="114.462" height="1.381"/>
					<rect x="-479.284" y="-234.673" clip-path="url(#SVGID_2_)" fill="#EA7C66" width="114.462" height="1.381"/>
					<rect x="-479.284" y="-233.292" clip-path="url(#SVGID_2_)" fill="#EA7D67" width="114.462" height="1.381"/>
					<rect x="-479.284" y="-231.911" clip-path="url(#SVGID_2_)" fill="#EA7E68" width="114.462" height="1.381"/>
					<rect x="-479.284" y="-230.53" clip-path="url(#SVGID_2_)" fill="#EB7F68" width="114.462" height="1.381"/>
					<rect x="-479.284" y="-229.148" clip-path="url(#SVGID_2_)" fill="#EB8069" width="114.462" height="1.381"/>
					<rect x="-479.284" y="-227.768" clip-path="url(#SVGID_2_)" fill="#EB816A" width="114.462" height="1.381"/>
					<rect x="-479.284" y="-226.387" clip-path="url(#SVGID_2_)" fill="#EC826A" width="114.462" height="1.381"/>
					<rect x="-479.284" y="-225.006" clip-path="url(#SVGID_2_)" fill="#EC836B" width="114.462" height="1.382"/>
					<rect x="-479.284" y="-223.624" clip-path="url(#SVGID_2_)" fill="#EC846C" width="114.462" height="1.381"/>
					<rect x="-479.284" y="-222.243" clip-path="url(#SVGID_2_)" fill="#ED856C" width="114.462" height="1.381"/>
					<rect x="-479.284" y="-220.862" clip-path="url(#SVGID_2_)" fill="#ED866D" width="114.462" height="1.382"/>
					<rect x="-479.284" y="-219.48" clip-path="url(#SVGID_2_)" fill="#ED876D" width="114.462" height="1.381"/>
					<rect x="-479.284" y="-218.1" clip-path="url(#SVGID_2_)" fill="#EE886E" width="114.462" height="1.381"/>
					<rect x="-479.284" y="-216.718" clip-path="url(#SVGID_2_)" fill="#EE896F" width="114.462" height="1.381"/>
					<rect x="-479.284" y="-215.337" clip-path="url(#SVGID_2_)" fill="#EE8A6F" width="114.462" height="1.381"/>
					<rect x="-479.284" y="-213.957" clip-path="url(#SVGID_2_)" fill="#EF8B70" width="114.462" height="1.381"/>
					<rect x="-479.284" y="-212.575" clip-path="url(#SVGID_2_)" fill="#EF8C71" width="114.462" height="1.381"/>
					<rect x="-479.284" y="-211.194" clip-path="url(#SVGID_2_)" fill="#EF8D71" width="114.462" height="1.381"/>
					<rect x="-479.284" y="-209.813" clip-path="url(#SVGID_2_)" fill="#F08E72" width="114.462" height="1.38"/>
					<rect x="-479.284" y="-208.432" clip-path="url(#SVGID_2_)" fill="#F08F72" width="114.462" height="1.381"/>
					<rect x="-479.284" y="-207.051" clip-path="url(#SVGID_2_)" fill="#F09073" width="114.462" height="1.381"/>
					<rect x="-479.284" y="-205.67" clip-path="url(#SVGID_2_)" fill="#F19174" width="114.462" height="1.382"/>
					<rect x="-479.284" y="-204.288" clip-path="url(#SVGID_2_)" fill="#F19274" width="114.462" height="1.381"/>
					<rect x="-479.284" y="-202.907" clip-path="url(#SVGID_2_)" fill="#F19375" width="114.462" height="1.381"/>
					<rect x="-479.284" y="-201.526" clip-path="url(#SVGID_2_)" fill="#F29476" width="114.462" height="1.381"/>
					<rect x="-479.284" y="-200.145" clip-path="url(#SVGID_2_)" fill="#F29576" width="114.462" height="1.381"/>
					<rect x="-479.284" y="-198.764" clip-path="url(#SVGID_2_)" fill="#F29677" width="114.462" height="1.381"/>
					<rect x="-479.284" y="-197.383" clip-path="url(#SVGID_2_)" fill="#F39778" width="114.462" height="1.381"/>
					<rect x="-479.284" y="-196.002" clip-path="url(#SVGID_2_)" fill="#F39878" width="114.462" height="1.381"/>
					<rect x="-479.284" y="-194.621" clip-path="url(#SVGID_2_)" fill="#F39979" width="114.462" height="1.381"/>
					<rect x="-479.284" y="-193.24" clip-path="url(#SVGID_2_)" fill="#F49A79" width="114.462" height="1.382"/>
					<rect x="-479.284" y="-191.858" clip-path="url(#SVGID_2_)" fill="#F49B7A" width="114.462" height="1.381"/>
					<rect x="-479.284" y="-190.476" clip-path="url(#SVGID_2_)" fill="#F49C7B" width="114.462" height="1.38"/>
					<rect x="-479.284" y="-189.096" clip-path="url(#SVGID_2_)" fill="#F59D7B" width="114.462" height="1.381"/>
					<rect x="-479.284" y="-187.715" clip-path="url(#SVGID_2_)" fill="#F59E7C" width="114.462" height="1.381"/>
					<rect x="-479.284" y="-186.333" clip-path="url(#SVGID_2_)" fill="#F59E7C" width="114.462" height="1.388"/>
					<rect x="-460.29" y="-295.622" clip-path="url(#SVGID_2_)" fill="#DB4E4A" width="81.225" height="0.179"/>
					<rect x="-460.29" y="-295.443" clip-path="url(#SVGID_2_)" fill="#DB4F4B" width="81.225" height="1.381"/>
					<rect x="-460.29" y="-294.062" clip-path="url(#SVGID_2_)" fill="#DB504B" width="81.225" height="1.381"/>
					<rect x="-460.29" y="-292.681" clip-path="url(#SVGID_2_)" fill="#DC514C" width="81.225" height="1.381"/>
					<rect x="-460.29" y="-291.3" clip-path="url(#SVGID_2_)" fill="#DC524C" width="81.225" height="1.381"/>
					<rect x="-460.29" y="-289.918" clip-path="url(#SVGID_2_)" fill="#DC534D" width="81.225" height="1.381"/>
					<rect x="-460.29" y="-288.538" clip-path="url(#SVGID_2_)" fill="#DD544E" width="81.225" height="1.381"/>
					<rect x="-460.29" y="-287.157" clip-path="url(#SVGID_2_)" fill="#DD554E" width="81.225" height="1.381"/>
					<rect x="-460.29" y="-285.775" clip-path="url(#SVGID_2_)" fill="#DD564F" width="81.225" height="1.381"/>
					<rect x="-460.29" y="-284.394" clip-path="url(#SVGID_2_)" fill="#DE5750" width="81.225" height="1.381"/>
					<rect x="-460.29" y="-283.013" clip-path="url(#SVGID_2_)" fill="#DE5850" width="81.225" height="1.381"/>
					<rect x="-460.29" y="-281.632" clip-path="url(#SVGID_2_)" fill="#DE5951" width="81.225" height="1.381"/>
					<rect x="-460.29" y="-280.251" clip-path="url(#SVGID_2_)" fill="#DF5A51" width="81.225" height="1.382"/>
					<rect x="-460.29" y="-278.869" clip-path="url(#SVGID_2_)" fill="#DF5B52" width="81.225" height="1.381"/>
					<rect x="-460.29" y="-277.488" clip-path="url(#SVGID_2_)" fill="#DF5C53" width="81.225" height="1.381"/>
					<rect x="-460.29" y="-276.107" clip-path="url(#SVGID_2_)" fill="#E05D53" width="81.225" height="1.381"/>
					<rect x="-460.29" y="-274.726" clip-path="url(#SVGID_2_)" fill="#E05E54" width="81.225" height="1.38"/>
					<rect x="-460.29" y="-273.346" clip-path="url(#SVGID_2_)" fill="#E05F55" width="81.225" height="1.382"/>
					<rect x="-460.29" y="-271.964" clip-path="url(#SVGID_2_)" fill="#E16055" width="81.225" height="1.381"/>
					<rect x="-460.29" y="-270.583" clip-path="url(#SVGID_2_)" fill="#E16156" width="81.225" height="1.381"/>
					<rect x="-460.29" y="-269.202" clip-path="url(#SVGID_2_)" fill="#E16257" width="81.225" height="1.381"/>
					<rect x="-460.29" y="-267.821" clip-path="url(#SVGID_2_)" fill="#E26357" width="81.225" height="1.381"/>
					<rect x="-460.29" y="-266.439" clip-path="url(#SVGID_2_)" fill="#E26458" width="81.225" height="1.381"/>
					<rect x="-460.29" y="-265.058" clip-path="url(#SVGID_2_)" fill="#E26558" width="81.225" height="1.381"/>
					<rect x="-460.29" y="-263.677" clip-path="url(#SVGID_2_)" fill="#E36659" width="81.225" height="1.381"/>
					<rect x="-460.29" y="-262.296" clip-path="url(#SVGID_2_)" fill="#E3675A" width="81.225" height="1.382"/>
					<rect x="-460.29" y="-260.915" clip-path="url(#SVGID_2_)" fill="#E3685A" width="81.225" height="1.381"/>
					<rect x="-460.29" y="-259.534" clip-path="url(#SVGID_2_)" fill="#E4695B" width="81.225" height="1.381"/>
					<rect x="-460.29" y="-258.152" clip-path="url(#SVGID_2_)" fill="#E46A5C" width="81.225" height="1.381"/>
					<rect x="-460.29" y="-256.771" clip-path="url(#SVGID_2_)" fill="#E46B5C" width="81.225" height="1.381"/>
					<rect x="-460.29" y="-255.391" clip-path="url(#SVGID_2_)" fill="#E56C5D" width="81.225" height="1.381"/>
					<rect x="-460.29" y="-254.009" clip-path="url(#SVGID_2_)" fill="#E56D5E" width="81.225" height="1.381"/>
					<rect x="-460.29" y="-252.628" clip-path="url(#SVGID_2_)" fill="#E56E5E" width="81.225" height="1.381"/>
					<rect x="-460.29" y="-251.247" clip-path="url(#SVGID_2_)" fill="#E6705F" width="81.225" height="1.381"/>
					<rect x="-460.29" y="-249.866" clip-path="url(#SVGID_2_)" fill="#E6715F" width="81.225" height="1.381"/>
					<rect x="-460.29" y="-248.485" clip-path="url(#SVGID_2_)" fill="#E67260" width="81.225" height="1.382"/>
					<rect x="-460.29" y="-247.103" clip-path="url(#SVGID_2_)" fill="#E77361" width="81.225" height="1.38"/>
					<rect x="-460.29" y="-245.723" clip-path="url(#SVGID_2_)" fill="#E77461" width="81.225" height="1.381"/>
					<rect x="-460.29" y="-244.341" clip-path="url(#SVGID_2_)" fill="#E77562" width="81.225" height="1.381"/>
					<rect x="-460.29" y="-242.96" clip-path="url(#SVGID_2_)" fill="#E87663" width="81.225" height="1.381"/>
					<rect x="-460.29" y="-241.579" clip-path="url(#SVGID_2_)" fill="#E87763" width="81.225" height="1.381"/>
					<rect x="-460.29" y="-240.198" clip-path="url(#SVGID_2_)" fill="#E87864" width="81.225" height="1.381"/>
					<rect x="-460.29" y="-238.817" clip-path="url(#SVGID_2_)" fill="#E97965" width="81.225" height="1.381"/>
					<rect x="-460.29" y="-237.436" clip-path="url(#SVGID_2_)" fill="#E97A65" width="81.225" height="1.381"/>
					<rect x="-460.29" y="-236.055" clip-path="url(#SVGID_2_)" fill="#E97B66" width="81.225" height="1.381"/>
					<rect x="-460.29" y="-234.673" clip-path="url(#SVGID_2_)" fill="#EA7C66" width="81.225" height="1.381"/>
					<rect x="-460.29" y="-233.292" clip-path="url(#SVGID_2_)" fill="#EA7D67" width="81.225" height="1.381"/>
					<rect x="-460.29" y="-231.911" clip-path="url(#SVGID_2_)" fill="#EA7E68" width="81.225" height="1.381"/>
					<rect x="-460.29" y="-230.53" clip-path="url(#SVGID_2_)" fill="#EB7F68" width="81.225" height="1.381"/>
					<rect x="-460.29" y="-229.148" clip-path="url(#SVGID_2_)" fill="#EB8069" width="81.225" height="1.381"/>
					<rect x="-460.29" y="-227.768" clip-path="url(#SVGID_2_)" fill="#EB816A" width="81.225" height="1.381"/>
					<rect x="-460.29" y="-226.387" clip-path="url(#SVGID_2_)" fill="#EC826A" width="81.225" height="1.381"/>
					<rect x="-460.29" y="-225.006" clip-path="url(#SVGID_2_)" fill="#EC836B" width="81.225" height="1.382"/>
					<rect x="-460.29" y="-223.624" clip-path="url(#SVGID_2_)" fill="#EC846C" width="81.225" height="1.381"/>
					<rect x="-460.29" y="-222.243" clip-path="url(#SVGID_2_)" fill="#ED856C" width="81.225" height="1.381"/>
					<rect x="-460.29" y="-220.862" clip-path="url(#SVGID_2_)" fill="#ED866D" width="81.225" height="1.382"/>
					<rect x="-460.29" y="-219.48" clip-path="url(#SVGID_2_)" fill="#ED876D" width="81.225" height="1.381"/>
					<rect x="-460.29" y="-218.1" clip-path="url(#SVGID_2_)" fill="#EE886E" width="81.225" height="1.381"/>
					<rect x="-460.29" y="-216.718" clip-path="url(#SVGID_2_)" fill="#EE896F" width="81.225" height="1.381"/>
					<rect x="-460.29" y="-215.337" clip-path="url(#SVGID_2_)" fill="#EE8A6F" width="81.225" height="1.381"/>
					<rect x="-460.29" y="-213.957" clip-path="url(#SVGID_2_)" fill="#EF8B70" width="81.225" height="1.381"/>
					<rect x="-460.29" y="-212.575" clip-path="url(#SVGID_2_)" fill="#EF8C71" width="81.225" height="1.381"/>
					<rect x="-460.29" y="-211.194" clip-path="url(#SVGID_2_)" fill="#EF8D71" width="81.225" height="1.381"/>
					<rect x="-460.29" y="-209.813" clip-path="url(#SVGID_2_)" fill="#F08E72" width="81.225" height="1.38"/>
					<rect x="-460.29" y="-208.432" clip-path="url(#SVGID_2_)" fill="#F08F72" width="81.225" height="1.381"/>
					<rect x="-460.29" y="-207.051" clip-path="url(#SVGID_2_)" fill="#F09073" width="81.225" height="1.381"/>
					<rect x="-460.29" y="-205.67" clip-path="url(#SVGID_2_)" fill="#F19174" width="81.225" height="1.382"/>
					<rect x="-460.29" y="-204.288" clip-path="url(#SVGID_2_)" fill="#F19274" width="81.225" height="1.381"/>
					<rect x="-460.29" y="-202.907" clip-path="url(#SVGID_2_)" fill="#F19375" width="81.225" height="1.381"/>
					<rect x="-460.29" y="-201.526" clip-path="url(#SVGID_2_)" fill="#F29476" width="81.225" height="0.441"/>
				</g>
			</g>
			<g id="Triangle-2-Copy-4_1_">
				<g>
					<defs>
						<path id="SVGID_3_" d="M-513.333-201.085l81.225-26.392l-67.042-68.146L-513.333-201.085z M-509.259-310.459
							c0.922-6.149,5.205-7.541,9.566-3.108l82.218,83.571c4.36,4.433,3.104,9.583-2.812,11.505l-97.33,31.624
							c-5.914,1.921-9.96-1.506-9.037-7.655L-509.259-310.459z"/>
					</defs>
					<clipPath id="SVGID_4_">
						<use xlink:href="#SVGID_3_"  overflow="visible"/>
					</clipPath>
					<rect x="-527.576" y="-318" clip-path="url(#SVGID_4_)" fill="#D64041" width="114.462" height="1.937"/>
					<rect x="-527.576" y="-316.16" clip-path="url(#SVGID_4_)" fill="#D64041" width="114.462" height="1.381"/>
					<rect x="-527.576" y="-314.779" clip-path="url(#SVGID_4_)" fill="#D64142" width="114.462" height="1.381"/>
					<rect x="-527.576" y="-313.398" clip-path="url(#SVGID_4_)" fill="#D74242" width="114.462" height="1.381"/>
					<rect x="-527.576" y="-312.017" clip-path="url(#SVGID_4_)" fill="#D74343" width="114.462" height="1.381"/>
					<rect x="-527.576" y="-310.636" clip-path="url(#SVGID_4_)" fill="#D74444" width="114.462" height="1.382"/>
					<rect x="-527.576" y="-309.254" clip-path="url(#SVGID_4_)" fill="#D84544" width="114.462" height="1.381"/>
					<rect x="-527.576" y="-307.874" clip-path="url(#SVGID_4_)" fill="#D84645" width="114.462" height="1.381"/>
					<rect x="-527.576" y="-306.492" clip-path="url(#SVGID_4_)" fill="#D84745" width="114.462" height="1.381"/>
					<rect x="-527.576" y="-305.111" clip-path="url(#SVGID_4_)" fill="#D94846" width="114.462" height="1.382"/>
					<rect x="-527.576" y="-303.729" clip-path="url(#SVGID_4_)" fill="#D94947" width="114.462" height="1.381"/>
					<rect x="-527.576" y="-302.349" clip-path="url(#SVGID_4_)" fill="#D94A47" width="114.462" height="1.38"/>
					<rect x="-527.576" y="-300.968" clip-path="url(#SVGID_4_)" fill="#DA4B48" width="114.462" height="1.381"/>
					<rect x="-527.576" y="-299.587" clip-path="url(#SVGID_4_)" fill="#DA4C49" width="114.462" height="1.381"/>
					<rect x="-527.576" y="-298.206" clip-path="url(#SVGID_4_)" fill="#DA4D49" width="114.462" height="1.382"/>
					<rect x="-527.576" y="-296.824" clip-path="url(#SVGID_4_)" fill="#DB4E4A" width="114.462" height="1.381"/>
					<rect x="-527.576" y="-295.443" clip-path="url(#SVGID_4_)" fill="#DB4F4B" width="114.462" height="1.381"/>
					<rect x="-527.576" y="-294.062" clip-path="url(#SVGID_4_)" fill="#DB504B" width="114.462" height="1.381"/>
					<rect x="-527.576" y="-292.681" clip-path="url(#SVGID_4_)" fill="#DC514C" width="114.462" height="1.381"/>
					<rect x="-527.576" y="-291.3" clip-path="url(#SVGID_4_)" fill="#DC524C" width="114.462" height="1.381"/>
					<rect x="-527.576" y="-289.918" clip-path="url(#SVGID_4_)" fill="#DC534D" width="114.462" height="1.381"/>
					<rect x="-527.576" y="-288.538" clip-path="url(#SVGID_4_)" fill="#DD544E" width="114.462" height="1.381"/>
					<rect x="-527.576" y="-287.157" clip-path="url(#SVGID_4_)" fill="#DD554E" width="114.462" height="1.381"/>
					<rect x="-527.576" y="-285.775" clip-path="url(#SVGID_4_)" fill="#DD564F" width="114.462" height="1.381"/>
					<rect x="-527.576" y="-284.394" clip-path="url(#SVGID_4_)" fill="#DE5750" width="114.462" height="1.381"/>
					<rect x="-527.576" y="-283.013" clip-path="url(#SVGID_4_)" fill="#DE5850" width="114.462" height="1.381"/>
					<rect x="-527.576" y="-281.632" clip-path="url(#SVGID_4_)" fill="#DE5951" width="114.462" height="1.381"/>
					<rect x="-527.576" y="-280.251" clip-path="url(#SVGID_4_)" fill="#DF5A51" width="114.462" height="1.382"/>
					<rect x="-527.576" y="-278.869" clip-path="url(#SVGID_4_)" fill="#DF5B52" width="114.462" height="1.381"/>
					<rect x="-527.576" y="-277.488" clip-path="url(#SVGID_4_)" fill="#DF5C53" width="114.462" height="1.381"/>
					<rect x="-527.576" y="-276.107" clip-path="url(#SVGID_4_)" fill="#E05D53" width="114.462" height="1.381"/>
					<rect x="-527.576" y="-274.726" clip-path="url(#SVGID_4_)" fill="#E05E54" width="114.462" height="1.38"/>
					<rect x="-527.576" y="-273.346" clip-path="url(#SVGID_4_)" fill="#E05F55" width="114.462" height="1.382"/>
					<rect x="-527.576" y="-271.964" clip-path="url(#SVGID_4_)" fill="#E16055" width="114.462" height="1.381"/>
					<rect x="-527.576" y="-270.583" clip-path="url(#SVGID_4_)" fill="#E16156" width="114.462" height="1.381"/>
					<rect x="-527.576" y="-269.202" clip-path="url(#SVGID_4_)" fill="#E16257" width="114.462" height="1.381"/>
					<rect x="-527.576" y="-267.821" clip-path="url(#SVGID_4_)" fill="#E26357" width="114.462" height="1.381"/>
					<rect x="-527.576" y="-266.439" clip-path="url(#SVGID_4_)" fill="#E26458" width="114.462" height="1.381"/>
					<rect x="-527.576" y="-265.058" clip-path="url(#SVGID_4_)" fill="#E26558" width="114.462" height="1.381"/>
					<rect x="-527.576" y="-263.677" clip-path="url(#SVGID_4_)" fill="#E36659" width="114.462" height="1.381"/>
					<rect x="-527.576" y="-262.296" clip-path="url(#SVGID_4_)" fill="#E3675A" width="114.462" height="1.382"/>
					<rect x="-527.576" y="-260.915" clip-path="url(#SVGID_4_)" fill="#E3685A" width="114.462" height="1.381"/>
					<rect x="-527.576" y="-259.534" clip-path="url(#SVGID_4_)" fill="#E4695B" width="114.462" height="1.381"/>
					<rect x="-527.576" y="-258.152" clip-path="url(#SVGID_4_)" fill="#E46A5C" width="114.462" height="1.381"/>
					<rect x="-527.576" y="-256.771" clip-path="url(#SVGID_4_)" fill="#E46B5C" width="114.462" height="1.381"/>
					<rect x="-527.576" y="-255.391" clip-path="url(#SVGID_4_)" fill="#E56C5D" width="114.462" height="1.381"/>
					<rect x="-527.576" y="-254.009" clip-path="url(#SVGID_4_)" fill="#E56D5E" width="114.462" height="1.381"/>
					<rect x="-527.576" y="-252.628" clip-path="url(#SVGID_4_)" fill="#E56E5E" width="114.462" height="1.381"/>
					<rect x="-527.576" y="-251.247" clip-path="url(#SVGID_4_)" fill="#E6705F" width="114.462" height="1.381"/>
					<rect x="-527.576" y="-249.866" clip-path="url(#SVGID_4_)" fill="#E6715F" width="114.462" height="1.381"/>
					<rect x="-527.576" y="-248.485" clip-path="url(#SVGID_4_)" fill="#E67260" width="114.462" height="1.382"/>
					<rect x="-527.576" y="-247.103" clip-path="url(#SVGID_4_)" fill="#E77361" width="114.462" height="1.38"/>
					<rect x="-527.576" y="-245.723" clip-path="url(#SVGID_4_)" fill="#E77461" width="114.462" height="1.381"/>
					<rect x="-527.576" y="-244.341" clip-path="url(#SVGID_4_)" fill="#E77562" width="114.462" height="1.381"/>
					<rect x="-527.576" y="-242.96" clip-path="url(#SVGID_4_)" fill="#E87663" width="114.462" height="1.381"/>
					<rect x="-527.576" y="-241.579" clip-path="url(#SVGID_4_)" fill="#E87763" width="114.462" height="1.381"/>
					<rect x="-527.576" y="-240.198" clip-path="url(#SVGID_4_)" fill="#E87864" width="114.462" height="1.381"/>
					<rect x="-527.576" y="-238.817" clip-path="url(#SVGID_4_)" fill="#E97965" width="114.462" height="1.381"/>
					<rect x="-527.576" y="-237.436" clip-path="url(#SVGID_4_)" fill="#E97A65" width="114.462" height="1.381"/>
					<rect x="-527.576" y="-236.055" clip-path="url(#SVGID_4_)" fill="#E97B66" width="114.462" height="1.381"/>
					<rect x="-527.576" y="-234.673" clip-path="url(#SVGID_4_)" fill="#EA7C66" width="114.462" height="1.381"/>
					<rect x="-527.576" y="-233.292" clip-path="url(#SVGID_4_)" fill="#EA7D67" width="114.462" height="1.381"/>
					<rect x="-527.576" y="-231.911" clip-path="url(#SVGID_4_)" fill="#EA7E68" width="114.462" height="1.381"/>
					<rect x="-527.576" y="-230.53" clip-path="url(#SVGID_4_)" fill="#EB7F68" width="114.462" height="1.381"/>
					<rect x="-527.576" y="-229.148" clip-path="url(#SVGID_4_)" fill="#EB8069" width="114.462" height="1.381"/>
					<rect x="-527.576" y="-227.768" clip-path="url(#SVGID_4_)" fill="#EB816A" width="114.462" height="1.381"/>
					<rect x="-527.576" y="-226.387" clip-path="url(#SVGID_4_)" fill="#EC826A" width="114.462" height="1.381"/>
					<rect x="-527.576" y="-225.006" clip-path="url(#SVGID_4_)" fill="#EC836B" width="114.462" height="1.382"/>
					<rect x="-527.576" y="-223.624" clip-path="url(#SVGID_4_)" fill="#EC846C" width="114.462" height="1.381"/>
					<rect x="-527.576" y="-222.243" clip-path="url(#SVGID_4_)" fill="#ED856C" width="114.462" height="1.381"/>
					<rect x="-527.576" y="-220.862" clip-path="url(#SVGID_4_)" fill="#ED866D" width="114.462" height="1.382"/>
					<rect x="-527.576" y="-219.48" clip-path="url(#SVGID_4_)" fill="#ED876D" width="114.462" height="1.381"/>
					<rect x="-527.576" y="-218.1" clip-path="url(#SVGID_4_)" fill="#EE886E" width="114.462" height="1.381"/>
					<rect x="-527.576" y="-216.718" clip-path="url(#SVGID_4_)" fill="#EE896F" width="114.462" height="1.381"/>
					<rect x="-527.576" y="-215.337" clip-path="url(#SVGID_4_)" fill="#EE8A6F" width="114.462" height="1.381"/>
					<rect x="-527.576" y="-213.957" clip-path="url(#SVGID_4_)" fill="#EF8B70" width="114.462" height="1.381"/>
					<rect x="-527.576" y="-212.575" clip-path="url(#SVGID_4_)" fill="#EF8C71" width="114.462" height="1.381"/>
					<rect x="-527.576" y="-211.194" clip-path="url(#SVGID_4_)" fill="#EF8D71" width="114.462" height="1.381"/>
					<rect x="-527.576" y="-209.813" clip-path="url(#SVGID_4_)" fill="#F08E72" width="114.462" height="1.38"/>
					<rect x="-527.576" y="-208.432" clip-path="url(#SVGID_4_)" fill="#F08F72" width="114.462" height="1.381"/>
					<rect x="-527.576" y="-207.051" clip-path="url(#SVGID_4_)" fill="#F09073" width="114.462" height="1.381"/>
					<rect x="-527.576" y="-205.67" clip-path="url(#SVGID_4_)" fill="#F19174" width="114.462" height="1.382"/>
					<rect x="-527.576" y="-204.288" clip-path="url(#SVGID_4_)" fill="#F19274" width="114.462" height="1.381"/>
					<rect x="-527.576" y="-202.907" clip-path="url(#SVGID_4_)" fill="#F19375" width="114.462" height="1.381"/>
					<rect x="-527.576" y="-201.526" clip-path="url(#SVGID_4_)" fill="#F29476" width="114.462" height="1.381"/>
					<rect x="-527.576" y="-200.145" clip-path="url(#SVGID_4_)" fill="#F29576" width="114.462" height="1.381"/>
					<rect x="-527.576" y="-198.764" clip-path="url(#SVGID_4_)" fill="#F29677" width="114.462" height="1.381"/>
					<rect x="-527.576" y="-197.383" clip-path="url(#SVGID_4_)" fill="#F39778" width="114.462" height="1.381"/>
					<rect x="-527.576" y="-196.002" clip-path="url(#SVGID_4_)" fill="#F39878" width="114.462" height="1.381"/>
					<rect x="-527.576" y="-194.621" clip-path="url(#SVGID_4_)" fill="#F39979" width="114.462" height="1.381"/>
					<rect x="-527.576" y="-193.24" clip-path="url(#SVGID_4_)" fill="#F49A79" width="114.462" height="1.382"/>
					<rect x="-527.576" y="-191.858" clip-path="url(#SVGID_4_)" fill="#F49B7A" width="114.462" height="1.381"/>
					<rect x="-527.576" y="-190.476" clip-path="url(#SVGID_4_)" fill="#F49C7B" width="114.462" height="1.38"/>
					<rect x="-527.576" y="-189.096" clip-path="url(#SVGID_4_)" fill="#F59D7B" width="114.462" height="1.381"/>
					<rect x="-527.576" y="-187.715" clip-path="url(#SVGID_4_)" fill="#F59E7C" width="114.462" height="1.381"/>
					<rect x="-527.576" y="-186.333" clip-path="url(#SVGID_4_)" fill="#F59E7C" width="114.462" height="1.388"/>
					<rect x="-513.333" y="-295.622" clip-path="url(#SVGID_4_)" fill="#DB4E4A" width="81.225" height="0.179"/>
					<rect x="-513.333" y="-295.443" clip-path="url(#SVGID_4_)" fill="#DB4F4B" width="81.225" height="1.381"/>
					<rect x="-513.333" y="-294.062" clip-path="url(#SVGID_4_)" fill="#DB504B" width="81.225" height="1.381"/>
					<rect x="-513.333" y="-292.681" clip-path="url(#SVGID_4_)" fill="#DC514C" width="81.225" height="1.381"/>
					<rect x="-513.333" y="-291.3" clip-path="url(#SVGID_4_)" fill="#DC524C" width="81.225" height="1.381"/>
					<rect x="-513.333" y="-289.918" clip-path="url(#SVGID_4_)" fill="#DC534D" width="81.225" height="1.381"/>
					<rect x="-513.333" y="-288.538" clip-path="url(#SVGID_4_)" fill="#DD544E" width="81.225" height="1.381"/>
					<rect x="-513.333" y="-287.157" clip-path="url(#SVGID_4_)" fill="#DD554E" width="81.225" height="1.381"/>
					<rect x="-513.333" y="-285.775" clip-path="url(#SVGID_4_)" fill="#DD564F" width="81.225" height="1.381"/>
					<rect x="-513.333" y="-284.394" clip-path="url(#SVGID_4_)" fill="#DE5750" width="81.225" height="1.381"/>
					<rect x="-513.333" y="-283.013" clip-path="url(#SVGID_4_)" fill="#DE5850" width="81.225" height="1.381"/>
					<rect x="-513.333" y="-281.632" clip-path="url(#SVGID_4_)" fill="#DE5951" width="81.225" height="1.381"/>
					<rect x="-513.333" y="-280.251" clip-path="url(#SVGID_4_)" fill="#DF5A51" width="81.225" height="1.382"/>
					<rect x="-513.333" y="-278.869" clip-path="url(#SVGID_4_)" fill="#DF5B52" width="81.225" height="1.381"/>
					<rect x="-513.333" y="-277.488" clip-path="url(#SVGID_4_)" fill="#DF5C53" width="81.225" height="1.381"/>
					<rect x="-513.333" y="-276.107" clip-path="url(#SVGID_4_)" fill="#E05D53" width="81.225" height="1.381"/>
					<rect x="-513.333" y="-274.726" clip-path="url(#SVGID_4_)" fill="#E05E54" width="81.225" height="1.38"/>
					<rect x="-513.333" y="-273.346" clip-path="url(#SVGID_4_)" fill="#E05F55" width="81.225" height="1.382"/>
					<rect x="-513.333" y="-271.964" clip-path="url(#SVGID_4_)" fill="#E16055" width="81.225" height="1.381"/>
					<rect x="-513.333" y="-270.583" clip-path="url(#SVGID_4_)" fill="#E16156" width="81.225" height="1.381"/>
					<rect x="-513.333" y="-269.202" clip-path="url(#SVGID_4_)" fill="#E16257" width="81.225" height="1.381"/>
					<rect x="-513.333" y="-267.821" clip-path="url(#SVGID_4_)" fill="#E26357" width="81.225" height="1.381"/>
					<rect x="-513.333" y="-266.439" clip-path="url(#SVGID_4_)" fill="#E26458" width="81.225" height="1.381"/>
					<rect x="-513.333" y="-265.058" clip-path="url(#SVGID_4_)" fill="#E26558" width="81.225" height="1.381"/>
					<rect x="-513.333" y="-263.677" clip-path="url(#SVGID_4_)" fill="#E36659" width="81.225" height="1.381"/>
					<rect x="-513.333" y="-262.296" clip-path="url(#SVGID_4_)" fill="#E3675A" width="81.225" height="1.382"/>
					<rect x="-513.333" y="-260.915" clip-path="url(#SVGID_4_)" fill="#E3685A" width="81.225" height="1.381"/>
					<rect x="-513.333" y="-259.534" clip-path="url(#SVGID_4_)" fill="#E4695B" width="81.225" height="1.381"/>
					<rect x="-513.333" y="-258.152" clip-path="url(#SVGID_4_)" fill="#E46A5C" width="81.225" height="1.381"/>
					<rect x="-513.333" y="-256.771" clip-path="url(#SVGID_4_)" fill="#E46B5C" width="81.225" height="1.381"/>
					<rect x="-513.333" y="-255.391" clip-path="url(#SVGID_4_)" fill="#E56C5D" width="81.225" height="1.381"/>
					<rect x="-513.333" y="-254.009" clip-path="url(#SVGID_4_)" fill="#E56D5E" width="81.225" height="1.381"/>
					<rect x="-513.333" y="-252.628" clip-path="url(#SVGID_4_)" fill="#E56E5E" width="81.225" height="1.381"/>
					<rect x="-513.333" y="-251.247" clip-path="url(#SVGID_4_)" fill="#E6705F" width="81.225" height="1.381"/>
					<rect x="-513.333" y="-249.866" clip-path="url(#SVGID_4_)" fill="#E6715F" width="81.225" height="1.381"/>
					<rect x="-513.333" y="-248.485" clip-path="url(#SVGID_4_)" fill="#E67260" width="81.225" height="1.382"/>
					<rect x="-513.333" y="-247.103" clip-path="url(#SVGID_4_)" fill="#E77361" width="81.225" height="1.38"/>
					<rect x="-513.333" y="-245.723" clip-path="url(#SVGID_4_)" fill="#E77461" width="81.225" height="1.381"/>
					<rect x="-513.333" y="-244.341" clip-path="url(#SVGID_4_)" fill="#E77562" width="81.225" height="1.381"/>
					<rect x="-513.333" y="-242.96" clip-path="url(#SVGID_4_)" fill="#E87663" width="81.225" height="1.381"/>
					<rect x="-513.333" y="-241.579" clip-path="url(#SVGID_4_)" fill="#E87763" width="81.225" height="1.381"/>
					<rect x="-513.333" y="-240.198" clip-path="url(#SVGID_4_)" fill="#E87864" width="81.225" height="1.381"/>
					<rect x="-513.333" y="-238.817" clip-path="url(#SVGID_4_)" fill="#E97965" width="81.225" height="1.381"/>
					<rect x="-513.333" y="-237.436" clip-path="url(#SVGID_4_)" fill="#E97A65" width="81.225" height="1.381"/>
					<rect x="-513.333" y="-236.055" clip-path="url(#SVGID_4_)" fill="#E97B66" width="81.225" height="1.381"/>
					<rect x="-513.333" y="-234.673" clip-path="url(#SVGID_4_)" fill="#EA7C66" width="81.225" height="1.381"/>
					<rect x="-513.333" y="-233.292" clip-path="url(#SVGID_4_)" fill="#EA7D67" width="81.225" height="1.381"/>
					<rect x="-513.333" y="-231.911" clip-path="url(#SVGID_4_)" fill="#EA7E68" width="81.225" height="1.381"/>
					<rect x="-513.333" y="-230.53" clip-path="url(#SVGID_4_)" fill="#EB7F68" width="81.225" height="1.381"/>
					<rect x="-513.333" y="-229.148" clip-path="url(#SVGID_4_)" fill="#EB8069" width="81.225" height="1.381"/>
					<rect x="-513.333" y="-227.768" clip-path="url(#SVGID_4_)" fill="#EB816A" width="81.225" height="1.381"/>
					<rect x="-513.333" y="-226.387" clip-path="url(#SVGID_4_)" fill="#EC826A" width="81.225" height="1.381"/>
					<rect x="-513.333" y="-225.006" clip-path="url(#SVGID_4_)" fill="#EC836B" width="81.225" height="1.382"/>
					<rect x="-513.333" y="-223.624" clip-path="url(#SVGID_4_)" fill="#EC846C" width="81.225" height="1.381"/>
					<rect x="-513.333" y="-222.243" clip-path="url(#SVGID_4_)" fill="#ED856C" width="81.225" height="1.381"/>
					<rect x="-513.333" y="-220.862" clip-path="url(#SVGID_4_)" fill="#ED866D" width="81.225" height="1.382"/>
					<rect x="-513.333" y="-219.48" clip-path="url(#SVGID_4_)" fill="#ED876D" width="81.225" height="1.381"/>
					<rect x="-513.333" y="-218.1" clip-path="url(#SVGID_4_)" fill="#EE886E" width="81.225" height="1.381"/>
					<rect x="-513.333" y="-216.718" clip-path="url(#SVGID_4_)" fill="#EE896F" width="81.225" height="1.381"/>
					<rect x="-513.333" y="-215.337" clip-path="url(#SVGID_4_)" fill="#EE8A6F" width="81.225" height="1.381"/>
					<rect x="-513.333" y="-213.957" clip-path="url(#SVGID_4_)" fill="#EF8B70" width="81.225" height="1.381"/>
					<rect x="-513.333" y="-212.575" clip-path="url(#SVGID_4_)" fill="#EF8C71" width="81.225" height="1.381"/>
					<rect x="-513.333" y="-211.194" clip-path="url(#SVGID_4_)" fill="#EF8D71" width="81.225" height="1.381"/>
					<rect x="-513.333" y="-209.813" clip-path="url(#SVGID_4_)" fill="#F08E72" width="81.225" height="1.38"/>
					<rect x="-513.333" y="-208.432" clip-path="url(#SVGID_4_)" fill="#F08F72" width="81.225" height="1.381"/>
					<rect x="-513.333" y="-207.051" clip-path="url(#SVGID_4_)" fill="#F09073" width="81.225" height="1.381"/>
					<rect x="-513.333" y="-205.67" clip-path="url(#SVGID_4_)" fill="#F19174" width="81.225" height="1.382"/>
					<rect x="-513.333" y="-204.288" clip-path="url(#SVGID_4_)" fill="#F19274" width="81.225" height="1.381"/>
					<rect x="-513.333" y="-202.907" clip-path="url(#SVGID_4_)" fill="#F19375" width="81.225" height="1.381"/>
					<rect x="-513.333" y="-201.526" clip-path="url(#SVGID_4_)" fill="#F29476" width="81.225" height="0.441"/>
				</g>
			</g>
		</g>
	</g>
</g>
</svg>
