<?xml version="1.0" standalone="no"?><!DOCTYPE svg PUBLIC "-//W3C//DTD SVG 1.1//EN" "http://www.w3.org/Graphics/SVG/1.1/DTD/svg11.dtd"><svg t="1524622208710" class="icon" style="" viewBox="0 0 1024 1024" version="1.1" xmlns="http://www.w3.org/2000/svg" p-id="1519" xmlns:xlink="http://www.w3.org/1999/xlink" width="200" height="200"><defs><style type="text/css"></style></defs><path d="M341.142857 240.571429l0 670.285714q0 14.285714-7.142857 24.285714t-20.857143 10q-9.714286 0-18.857143-4.571429l-265.714286-133.142857q-12-5.714286-20.285714-19.142857t-8.285714-26.571429l0-651.428571q0-11.428571 5.714286-19.428571t16.571429-8q8 0 25.142857 8.571429l292 146.285714q1.714286 1.714286 1.714286 2.857143zm36.571429 57.714286l305.142857 494.857143-305.142857-152 0-342.857143zm646.285714 10.285714l0 602.285714q0 14.285714-8 23.142857t-21.714286 8.857143-26.857143-7.428571l-252-125.714286zm-1.714286-68.571429q0 1.714286-146.571429 239.714286t-171.714286 278.571429l-222.857143-362.285714 185.142857-301.142857q9.714286-16 29.714286-16 8 0 14.857143 3.428571l309.142857 154.285714q2.285714 1.142857 2.285714 3.428571z" p-id="1520" fill="#1b0401"></path></svg>