<?xml version="1.0" encoding="utf-8"?>
<!-- Generator: Adobe Illustrator 16.0.0, SVG Export Plug-In . SVG Version: 6.00 Build 0)  -->
<!DOCTYPE svg PUBLIC "-//W3C//DTD SVG 1.1//EN" "http://www.w3.org/Graphics/SVG/1.1/DTD/svg11.dtd">
<svg version="1.1" id="图层_1" xmlns="http://www.w3.org/2000/svg" xmlns:xlink="http://www.w3.org/1999/xlink" x="0px" y="0px"
	 width="113.5px" height="103.5px" viewBox="7.5 11.25 113.5 103.5" enable-background="new 7.5 11.25 113.5 103.5"
	 xml:space="preserve">
<path fill="#1B0401" d="M117.334,61.333C117.334,53.867,111.467,48,104,48c-3.2,0-6.4,1.066-8.533,3.2c-8-4.8-17.6-8-28.801-8.534
	l5.867-21.333l18.133,5.333c0,5.867,4.801,10.667,10.668,10.667c5.866,0,10.666-4.8,10.666-10.667S107.2,16,101.334,16
	c-3.734,0-7.467,2.133-9.067,5.333L70.934,16c-1.6-0.533-2.667,0.533-3.2,2.133l-6.4,24.533c-10.667,0.534-20.8,3.733-28.8,8.534
	C30.4,49.066,27.2,48,24,48c-7.467,0-13.333,5.867-13.333,13.333c0,4.799,2.133,8.534,5.867,11.2L16,77.334
	C16,96.533,37.333,112,64,112c26.666,0,48-15.467,48-34.666l-0.533-4.801C115.2,69.867,117.334,66.133,117.334,61.333 M48,62.934
	c3.733,0,6.4,3.199,6.4,6.4c0,3.199-2.667,6.399-6.4,6.399s-6.4-2.667-6.4-6.399C41.6,65.6,44.267,62.934,48,62.934 M84.267,91.733
	c-9.601,5.866-30.933,5.866-40.533,0c-1.067-1.067-1.6-2.667-0.533-3.733c1.066-1.066,2.667-1.6,3.733-0.533
	c6.4,4.8,27.733,4.8,34.133,0C82.133,86.4,83.733,86.934,84.8,88C85.867,89.066,85.334,90.666,84.267,91.733 M80,75.733
	c-3.733,0-6.4-3.2-6.4-6.399c0-3.734,3.2-6.4,6.4-6.4c3.733,0,6.4,3.199,6.4,6.4C86.4,73.066,83.733,75.733,80,75.733z"/>
</svg>
